M48
;DRILL file {KiCad 4.0.6} date 06/20/17 17:06:00
;FORMAT={-:-/ absolute / metric / decimal}
FMAT,2
METRIC,TZ
T1C1.700
T2C2.286
T3C3.600
%
G90
G05
M71
T1
X112.6Y-118.995
X112.6Y-132.465
X116.Y-118.995
X116.Y-132.465
X126.57Y-118.995
X126.57Y-132.465
X129.97Y-118.995
X129.97Y-132.465
X140.54Y-118.995
X140.54Y-132.465
X143.94Y-118.995
X143.94Y-132.465
X154.51Y-118.995
X154.51Y-132.465
X157.91Y-118.995
X157.91Y-132.465
X168.48Y-118.995
X168.48Y-132.465
X171.88Y-118.995
X171.88Y-132.465
X182.45Y-118.995
X182.45Y-132.465
X185.85Y-118.995
X185.85Y-132.465
X196.42Y-118.995
X196.42Y-132.465
X199.82Y-118.995
X199.82Y-132.465
T2
X114.3Y-96.393
X114.3Y-104.267
X128.27Y-96.393
X128.27Y-104.267
X142.24Y-96.393
X142.24Y-104.267
X156.21Y-96.393
X156.21Y-104.267
X170.18Y-96.393
X170.18Y-104.267
X184.15Y-96.393
X184.15Y-104.267
X198.12Y-96.393
X198.12Y-104.267
T3
X105.41Y-91.44
X105.41Y-137.16
X207.01Y-91.44
X207.01Y-137.16
T0
M30
