G04 #@! TF.FileFunction,Copper,L2,Bot,Signal*
%FSLAX46Y46*%
G04 Gerber Fmt 4.6, Leading zero omitted, Abs format (unit mm)*
G04 Created by KiCad (PCBNEW 4.0.6) date 06/20/17 17:05:56*
%MOMM*%
%LPD*%
G01*
G04 APERTURE LIST*
%ADD10C,0.100000*%
%ADD11C,0.150000*%
%ADD12C,0.300000*%
%ADD13C,4.200000*%
%ADD14C,4.572000*%
%ADD15C,2.500000*%
%ADD16C,0.250000*%
%ADD17C,0.254000*%
G04 APERTURE END LIST*
D10*
D11*
X210820000Y-140970000D02*
X208280000Y-140970000D01*
X208280000Y-87630000D02*
X210820000Y-87630000D01*
X104140000Y-87630000D02*
X101600000Y-87630000D01*
X104140000Y-140970000D02*
X101600000Y-140970000D01*
D12*
X199679286Y-136417857D02*
X199465000Y-136489286D01*
X199393572Y-136560714D01*
X199322143Y-136703571D01*
X199322143Y-136917857D01*
X199393572Y-137060714D01*
X199465000Y-137132143D01*
X199607858Y-137203571D01*
X200179286Y-137203571D01*
X200179286Y-135703571D01*
X199679286Y-135703571D01*
X199536429Y-135775000D01*
X199465000Y-135846429D01*
X199393572Y-135989286D01*
X199393572Y-136132143D01*
X199465000Y-136275000D01*
X199536429Y-136346429D01*
X199679286Y-136417857D01*
X200179286Y-136417857D01*
X198393572Y-135703571D02*
X198107858Y-135703571D01*
X197965000Y-135775000D01*
X197822143Y-135917857D01*
X197750715Y-136203571D01*
X197750715Y-136703571D01*
X197822143Y-136989286D01*
X197965000Y-137132143D01*
X198107858Y-137203571D01*
X198393572Y-137203571D01*
X198536429Y-137132143D01*
X198679286Y-136989286D01*
X198750715Y-136703571D01*
X198750715Y-136203571D01*
X198679286Y-135917857D01*
X198536429Y-135775000D01*
X198393572Y-135703571D01*
X197322143Y-135703571D02*
X196465000Y-135703571D01*
X196893571Y-137203571D02*
X196893571Y-135703571D01*
X196179286Y-135703571D02*
X195322143Y-135703571D01*
X195750714Y-137203571D02*
X195750714Y-135703571D01*
X194536429Y-135703571D02*
X194250715Y-135703571D01*
X194107857Y-135775000D01*
X193965000Y-135917857D01*
X193893572Y-136203571D01*
X193893572Y-136703571D01*
X193965000Y-136989286D01*
X194107857Y-137132143D01*
X194250715Y-137203571D01*
X194536429Y-137203571D01*
X194679286Y-137132143D01*
X194822143Y-136989286D01*
X194893572Y-136703571D01*
X194893572Y-136203571D01*
X194822143Y-135917857D01*
X194679286Y-135775000D01*
X194536429Y-135703571D01*
X193250714Y-137203571D02*
X193250714Y-135703571D01*
X192750714Y-136775000D01*
X192250714Y-135703571D01*
X192250714Y-137203571D01*
D11*
X101600000Y-140970000D02*
X101600000Y-87630000D01*
X208280000Y-140970000D02*
X104140000Y-140970000D01*
X210820000Y-87630000D02*
X210820000Y-140970000D01*
X104140000Y-87630000D02*
X208280000Y-87630000D01*
D13*
X105410000Y-137160000D03*
X207010000Y-91440000D03*
X207010000Y-137160000D03*
D14*
X198120000Y-104267000D03*
X198120000Y-96393000D03*
X184150000Y-104267000D03*
X184150000Y-96393000D03*
X170180000Y-104267000D03*
X170180000Y-96393000D03*
X156210000Y-104267000D03*
X156210000Y-96393000D03*
X142240000Y-104267000D03*
X142240000Y-96393000D03*
X128270000Y-104267000D03*
X128270000Y-96393000D03*
X114300000Y-104267000D03*
X114300000Y-96393000D03*
D15*
X116000000Y-118995000D03*
X112600000Y-118995000D03*
X116000000Y-132465000D03*
X112600000Y-132465000D03*
X129970000Y-118995000D03*
X126570000Y-118995000D03*
X129970000Y-132465000D03*
X126570000Y-132465000D03*
X143940000Y-118995000D03*
X140540000Y-118995000D03*
X143940000Y-132465000D03*
X140540000Y-132465000D03*
X157910000Y-118995000D03*
X154510000Y-118995000D03*
X157910000Y-132465000D03*
X154510000Y-132465000D03*
X171880000Y-118995000D03*
X168480000Y-118995000D03*
X171880000Y-132465000D03*
X168480000Y-132465000D03*
X185850000Y-118995000D03*
X182450000Y-118995000D03*
X185850000Y-132465000D03*
X182450000Y-132465000D03*
X199820000Y-118995000D03*
X196420000Y-118995000D03*
X199820000Y-132465000D03*
X196420000Y-132465000D03*
D13*
X105410000Y-91440000D03*
D16*
X196420000Y-118995000D02*
X199820000Y-118995000D01*
X198120000Y-104267000D02*
X198120000Y-117295000D01*
X198120000Y-117295000D02*
X199820000Y-118995000D01*
X112600000Y-132465000D02*
X116000000Y-132465000D01*
X116000000Y-132465000D02*
X126570000Y-132465000D01*
X126570000Y-132465000D02*
X129970000Y-132465000D01*
X129970000Y-132465000D02*
X140540000Y-132465000D01*
X140540000Y-132465000D02*
X143940000Y-132465000D01*
X143940000Y-132465000D02*
X154510000Y-132465000D01*
X154510000Y-132465000D02*
X157910000Y-132465000D01*
X157910000Y-132465000D02*
X168480000Y-132465000D01*
X168480000Y-132465000D02*
X171880000Y-132465000D01*
X171880000Y-132465000D02*
X182450000Y-132465000D01*
X182450000Y-132465000D02*
X185850000Y-132465000D01*
X185850000Y-132465000D02*
X196420000Y-132465000D01*
X196420000Y-132465000D02*
X199820000Y-132465000D01*
X184150000Y-96393000D02*
X170180000Y-96393000D01*
X170180000Y-96393000D02*
X156210000Y-96393000D01*
X156210000Y-96393000D02*
X142240000Y-96393000D01*
X142240000Y-96393000D02*
X128270000Y-96393000D01*
X128270000Y-96393000D02*
X114300000Y-96393000D01*
D17*
G36*
X204275476Y-90893588D02*
X204274526Y-91981638D01*
X204690028Y-92987229D01*
X205458724Y-93757268D01*
X205613000Y-93821329D01*
X205613000Y-99568000D01*
X106807000Y-99568000D01*
X106807000Y-93822045D01*
X106957229Y-93759972D01*
X107727268Y-92991276D01*
X108144524Y-91986412D01*
X108145474Y-90898362D01*
X107896996Y-90297000D01*
X204523201Y-90297000D01*
X204275476Y-90893588D01*
X204275476Y-90893588D01*
G37*
X204275476Y-90893588D02*
X204274526Y-91981638D01*
X204690028Y-92987229D01*
X205458724Y-93757268D01*
X205613000Y-93821329D01*
X205613000Y-99568000D01*
X106807000Y-99568000D01*
X106807000Y-93822045D01*
X106957229Y-93759972D01*
X107727268Y-92991276D01*
X108144524Y-91986412D01*
X108145474Y-90898362D01*
X107896996Y-90297000D01*
X204523201Y-90297000D01*
X204275476Y-90893588D01*
G36*
X120523000Y-124333000D02*
X106807000Y-124333000D01*
X106807000Y-101092000D01*
X120523000Y-101092000D01*
X120523000Y-124333000D01*
X120523000Y-124333000D01*
G37*
X120523000Y-124333000D02*
X106807000Y-124333000D01*
X106807000Y-101092000D01*
X120523000Y-101092000D01*
X120523000Y-124333000D01*
G36*
X134493000Y-124333000D02*
X122047000Y-124333000D01*
X122047000Y-101092000D01*
X134493000Y-101092000D01*
X134493000Y-124333000D01*
X134493000Y-124333000D01*
G37*
X134493000Y-124333000D02*
X122047000Y-124333000D01*
X122047000Y-101092000D01*
X134493000Y-101092000D01*
X134493000Y-124333000D01*
G36*
X148463000Y-124333000D02*
X136017000Y-124333000D01*
X136017000Y-101092000D01*
X148463000Y-101092000D01*
X148463000Y-124333000D01*
X148463000Y-124333000D01*
G37*
X148463000Y-124333000D02*
X136017000Y-124333000D01*
X136017000Y-101092000D01*
X148463000Y-101092000D01*
X148463000Y-124333000D01*
G36*
X162433000Y-124333000D02*
X149987000Y-124333000D01*
X149987000Y-101092000D01*
X162433000Y-101092000D01*
X162433000Y-124333000D01*
X162433000Y-124333000D01*
G37*
X162433000Y-124333000D02*
X149987000Y-124333000D01*
X149987000Y-101092000D01*
X162433000Y-101092000D01*
X162433000Y-124333000D01*
G36*
X176403000Y-124333000D02*
X163957000Y-124333000D01*
X163957000Y-101092000D01*
X176403000Y-101092000D01*
X176403000Y-124333000D01*
X176403000Y-124333000D01*
G37*
X176403000Y-124333000D02*
X163957000Y-124333000D01*
X163957000Y-101092000D01*
X176403000Y-101092000D01*
X176403000Y-124333000D01*
G36*
X190373000Y-124333000D02*
X177927000Y-124333000D01*
X177927000Y-101092000D01*
X190373000Y-101092000D01*
X190373000Y-124333000D01*
X190373000Y-124333000D01*
G37*
X190373000Y-124333000D02*
X177927000Y-124333000D01*
X177927000Y-101092000D01*
X190373000Y-101092000D01*
X190373000Y-124333000D01*
G36*
X205613000Y-124333000D02*
X191897000Y-124333000D01*
X191897000Y-101092000D01*
X205613000Y-101092000D01*
X205613000Y-124333000D01*
X205613000Y-124333000D01*
G37*
X205613000Y-124333000D02*
X191897000Y-124333000D01*
X191897000Y-101092000D01*
X205613000Y-101092000D01*
X205613000Y-124333000D01*
G36*
X205613000Y-134777955D02*
X205462771Y-134840028D01*
X204692732Y-135608724D01*
X204275476Y-136613588D01*
X204274526Y-137701638D01*
X204523004Y-138303000D01*
X201171429Y-138303000D01*
X201171429Y-134690000D01*
X191258571Y-134690000D01*
X191258571Y-138303000D01*
X107896799Y-138303000D01*
X108144524Y-137706412D01*
X108145474Y-136618362D01*
X107729972Y-135612771D01*
X106961276Y-134842732D01*
X106807000Y-134778671D01*
X106807000Y-125857000D01*
X205613000Y-125857000D01*
X205613000Y-134777955D01*
X205613000Y-134777955D01*
G37*
X205613000Y-134777955D02*
X205462771Y-134840028D01*
X204692732Y-135608724D01*
X204275476Y-136613588D01*
X204274526Y-137701638D01*
X204523004Y-138303000D01*
X201171429Y-138303000D01*
X201171429Y-134690000D01*
X191258571Y-134690000D01*
X191258571Y-138303000D01*
X107896799Y-138303000D01*
X108144524Y-137706412D01*
X108145474Y-136618362D01*
X107729972Y-135612771D01*
X106961276Y-134842732D01*
X106807000Y-134778671D01*
X106807000Y-125857000D01*
X205613000Y-125857000D01*
X205613000Y-134777955D01*
M02*
