G04 #@! TF.FileFunction,Legend,Top*
%FSLAX46Y46*%
G04 Gerber Fmt 4.6, Leading zero omitted, Abs format (unit mm)*
G04 Created by KiCad (PCBNEW 4.0.6) date 06/20/17 17:05:56*
%MOMM*%
%LPD*%
G01*
G04 APERTURE LIST*
%ADD10C,0.100000*%
%ADD11C,0.150000*%
%ADD12C,0.300000*%
%ADD13C,0.120000*%
%ADD14C,0.127000*%
%ADD15C,0.050000*%
G04 APERTURE END LIST*
D10*
D11*
X210820000Y-140970000D02*
X208280000Y-140970000D01*
X208280000Y-87630000D02*
X210820000Y-87630000D01*
X104140000Y-87630000D02*
X101600000Y-87630000D01*
X104140000Y-140970000D02*
X101600000Y-140970000D01*
D12*
X123130712Y-138680000D02*
X123844998Y-138680000D01*
X122987855Y-139108571D02*
X123487855Y-137608571D01*
X123987855Y-139108571D01*
X124487855Y-139108571D02*
X124487855Y-137608571D01*
X125344998Y-139108571D01*
X125344998Y-137608571D01*
X126059284Y-139108571D02*
X126059284Y-137608571D01*
X126416427Y-137608571D01*
X126630712Y-137680000D01*
X126773570Y-137822857D01*
X126844998Y-137965714D01*
X126916427Y-138251429D01*
X126916427Y-138465714D01*
X126844998Y-138751429D01*
X126773570Y-138894286D01*
X126630712Y-139037143D01*
X126416427Y-139108571D01*
X126059284Y-139108571D01*
X127559284Y-138322857D02*
X128059284Y-138322857D01*
X128273570Y-139108571D02*
X127559284Y-139108571D01*
X127559284Y-137608571D01*
X128273570Y-137608571D01*
X129773570Y-139108571D02*
X129273570Y-138394286D01*
X128916427Y-139108571D02*
X128916427Y-137608571D01*
X129487855Y-137608571D01*
X129630713Y-137680000D01*
X129702141Y-137751429D01*
X129773570Y-137894286D01*
X129773570Y-138108571D01*
X129702141Y-138251429D01*
X129630713Y-138322857D01*
X129487855Y-138394286D01*
X128916427Y-138394286D01*
X130344998Y-139037143D02*
X130559284Y-139108571D01*
X130916427Y-139108571D01*
X131059284Y-139037143D01*
X131130713Y-138965714D01*
X131202141Y-138822857D01*
X131202141Y-138680000D01*
X131130713Y-138537143D01*
X131059284Y-138465714D01*
X130916427Y-138394286D01*
X130630713Y-138322857D01*
X130487855Y-138251429D01*
X130416427Y-138180000D01*
X130344998Y-138037143D01*
X130344998Y-137894286D01*
X130416427Y-137751429D01*
X130487855Y-137680000D01*
X130630713Y-137608571D01*
X130987855Y-137608571D01*
X131202141Y-137680000D01*
X132130712Y-137608571D02*
X132416426Y-137608571D01*
X132559284Y-137680000D01*
X132702141Y-137822857D01*
X132773569Y-138108571D01*
X132773569Y-138608571D01*
X132702141Y-138894286D01*
X132559284Y-139037143D01*
X132416426Y-139108571D01*
X132130712Y-139108571D01*
X131987855Y-139037143D01*
X131844998Y-138894286D01*
X131773569Y-138608571D01*
X131773569Y-138108571D01*
X131844998Y-137822857D01*
X131987855Y-137680000D01*
X132130712Y-137608571D01*
X133416427Y-139108571D02*
X133416427Y-137608571D01*
X134273570Y-139108571D01*
X134273570Y-137608571D01*
X136130713Y-139108571D02*
X136130713Y-137608571D01*
X136702141Y-137608571D01*
X136844999Y-137680000D01*
X136916427Y-137751429D01*
X136987856Y-137894286D01*
X136987856Y-138108571D01*
X136916427Y-138251429D01*
X136844999Y-138322857D01*
X136702141Y-138394286D01*
X136130713Y-138394286D01*
X137916427Y-137608571D02*
X138202141Y-137608571D01*
X138344999Y-137680000D01*
X138487856Y-137822857D01*
X138559284Y-138108571D01*
X138559284Y-138608571D01*
X138487856Y-138894286D01*
X138344999Y-139037143D01*
X138202141Y-139108571D01*
X137916427Y-139108571D01*
X137773570Y-139037143D01*
X137630713Y-138894286D01*
X137559284Y-138608571D01*
X137559284Y-138108571D01*
X137630713Y-137822857D01*
X137773570Y-137680000D01*
X137916427Y-137608571D01*
X139059285Y-137608571D02*
X139416428Y-139108571D01*
X139702142Y-138037143D01*
X139987856Y-139108571D01*
X140344999Y-137608571D01*
X140916428Y-138322857D02*
X141416428Y-138322857D01*
X141630714Y-139108571D02*
X140916428Y-139108571D01*
X140916428Y-137608571D01*
X141630714Y-137608571D01*
X143130714Y-139108571D02*
X142630714Y-138394286D01*
X142273571Y-139108571D02*
X142273571Y-137608571D01*
X142844999Y-137608571D01*
X142987857Y-137680000D01*
X143059285Y-137751429D01*
X143130714Y-137894286D01*
X143130714Y-138108571D01*
X143059285Y-138251429D01*
X142987857Y-138322857D01*
X142844999Y-138394286D01*
X142273571Y-138394286D01*
X143773571Y-139108571D02*
X143773571Y-137608571D01*
X144344999Y-137608571D01*
X144487857Y-137680000D01*
X144559285Y-137751429D01*
X144630714Y-137894286D01*
X144630714Y-138108571D01*
X144559285Y-138251429D01*
X144487857Y-138322857D01*
X144344999Y-138394286D01*
X143773571Y-138394286D01*
X145559285Y-137608571D02*
X145844999Y-137608571D01*
X145987857Y-137680000D01*
X146130714Y-137822857D01*
X146202142Y-138108571D01*
X146202142Y-138608571D01*
X146130714Y-138894286D01*
X145987857Y-139037143D01*
X145844999Y-139108571D01*
X145559285Y-139108571D01*
X145416428Y-139037143D01*
X145273571Y-138894286D01*
X145202142Y-138608571D01*
X145202142Y-138108571D01*
X145273571Y-137822857D01*
X145416428Y-137680000D01*
X145559285Y-137608571D01*
X147559286Y-139108571D02*
X146845000Y-139108571D01*
X146845000Y-137608571D01*
X148059286Y-138322857D02*
X148559286Y-138322857D01*
X148773572Y-139108571D02*
X148059286Y-139108571D01*
X148059286Y-137608571D01*
X148773572Y-137608571D01*
X151059286Y-138322857D02*
X150559286Y-138322857D01*
X150559286Y-139108571D02*
X150559286Y-137608571D01*
X151273572Y-137608571D01*
X151845000Y-137608571D02*
X151845000Y-138822857D01*
X151916428Y-138965714D01*
X151987857Y-139037143D01*
X152130714Y-139108571D01*
X152416428Y-139108571D01*
X152559286Y-139037143D01*
X152630714Y-138965714D01*
X152702143Y-138822857D01*
X152702143Y-137608571D01*
X153345000Y-139037143D02*
X153559286Y-139108571D01*
X153916429Y-139108571D01*
X154059286Y-139037143D01*
X154130715Y-138965714D01*
X154202143Y-138822857D01*
X154202143Y-138680000D01*
X154130715Y-138537143D01*
X154059286Y-138465714D01*
X153916429Y-138394286D01*
X153630715Y-138322857D01*
X153487857Y-138251429D01*
X153416429Y-138180000D01*
X153345000Y-138037143D01*
X153345000Y-137894286D01*
X153416429Y-137751429D01*
X153487857Y-137680000D01*
X153630715Y-137608571D01*
X153987857Y-137608571D01*
X154202143Y-137680000D01*
X154845000Y-138322857D02*
X155345000Y-138322857D01*
X155559286Y-139108571D02*
X154845000Y-139108571D01*
X154845000Y-137608571D01*
X155559286Y-137608571D01*
X156202143Y-139108571D02*
X156202143Y-137608571D01*
X156559286Y-137608571D01*
X156773571Y-137680000D01*
X156916429Y-137822857D01*
X156987857Y-137965714D01*
X157059286Y-138251429D01*
X157059286Y-138465714D01*
X156987857Y-138751429D01*
X156916429Y-138894286D01*
X156773571Y-139037143D01*
X156559286Y-139108571D01*
X156202143Y-139108571D01*
X158845000Y-139108571D02*
X158845000Y-137608571D01*
X159416428Y-137608571D01*
X159559286Y-137680000D01*
X159630714Y-137751429D01*
X159702143Y-137894286D01*
X159702143Y-138108571D01*
X159630714Y-138251429D01*
X159559286Y-138322857D01*
X159416428Y-138394286D01*
X158845000Y-138394286D01*
X160630714Y-137608571D02*
X160916428Y-137608571D01*
X161059286Y-137680000D01*
X161202143Y-137822857D01*
X161273571Y-138108571D01*
X161273571Y-138608571D01*
X161202143Y-138894286D01*
X161059286Y-139037143D01*
X160916428Y-139108571D01*
X160630714Y-139108571D01*
X160487857Y-139037143D01*
X160345000Y-138894286D01*
X160273571Y-138608571D01*
X160273571Y-138108571D01*
X160345000Y-137822857D01*
X160487857Y-137680000D01*
X160630714Y-137608571D01*
X161773572Y-137608571D02*
X162130715Y-139108571D01*
X162416429Y-138037143D01*
X162702143Y-139108571D01*
X163059286Y-137608571D01*
X163630715Y-138322857D02*
X164130715Y-138322857D01*
X164345001Y-139108571D02*
X163630715Y-139108571D01*
X163630715Y-137608571D01*
X164345001Y-137608571D01*
X165845001Y-139108571D02*
X165345001Y-138394286D01*
X164987858Y-139108571D02*
X164987858Y-137608571D01*
X165559286Y-137608571D01*
X165702144Y-137680000D01*
X165773572Y-137751429D01*
X165845001Y-137894286D01*
X165845001Y-138108571D01*
X165773572Y-138251429D01*
X165702144Y-138322857D01*
X165559286Y-138394286D01*
X164987858Y-138394286D01*
X167630715Y-139108571D02*
X167630715Y-137608571D01*
X167987858Y-137608571D01*
X168202143Y-137680000D01*
X168345001Y-137822857D01*
X168416429Y-137965714D01*
X168487858Y-138251429D01*
X168487858Y-138465714D01*
X168416429Y-138751429D01*
X168345001Y-138894286D01*
X168202143Y-139037143D01*
X167987858Y-139108571D01*
X167630715Y-139108571D01*
X169130715Y-139108571D02*
X169130715Y-137608571D01*
X169773572Y-139037143D02*
X169987858Y-139108571D01*
X170345001Y-139108571D01*
X170487858Y-139037143D01*
X170559287Y-138965714D01*
X170630715Y-138822857D01*
X170630715Y-138680000D01*
X170559287Y-138537143D01*
X170487858Y-138465714D01*
X170345001Y-138394286D01*
X170059287Y-138322857D01*
X169916429Y-138251429D01*
X169845001Y-138180000D01*
X169773572Y-138037143D01*
X169773572Y-137894286D01*
X169845001Y-137751429D01*
X169916429Y-137680000D01*
X170059287Y-137608571D01*
X170416429Y-137608571D01*
X170630715Y-137680000D01*
X171059286Y-137608571D02*
X171916429Y-137608571D01*
X171487858Y-139108571D02*
X171487858Y-137608571D01*
X173273572Y-139108571D02*
X172773572Y-138394286D01*
X172416429Y-139108571D02*
X172416429Y-137608571D01*
X172987857Y-137608571D01*
X173130715Y-137680000D01*
X173202143Y-137751429D01*
X173273572Y-137894286D01*
X173273572Y-138108571D01*
X173202143Y-138251429D01*
X173130715Y-138322857D01*
X172987857Y-138394286D01*
X172416429Y-138394286D01*
X173916429Y-139108571D02*
X173916429Y-137608571D01*
X175130715Y-138322857D02*
X175345001Y-138394286D01*
X175416429Y-138465714D01*
X175487858Y-138608571D01*
X175487858Y-138822857D01*
X175416429Y-138965714D01*
X175345001Y-139037143D01*
X175202143Y-139108571D01*
X174630715Y-139108571D01*
X174630715Y-137608571D01*
X175130715Y-137608571D01*
X175273572Y-137680000D01*
X175345001Y-137751429D01*
X175416429Y-137894286D01*
X175416429Y-138037143D01*
X175345001Y-138180000D01*
X175273572Y-138251429D01*
X175130715Y-138322857D01*
X174630715Y-138322857D01*
X176130715Y-137608571D02*
X176130715Y-138822857D01*
X176202143Y-138965714D01*
X176273572Y-139037143D01*
X176416429Y-139108571D01*
X176702143Y-139108571D01*
X176845001Y-139037143D01*
X176916429Y-138965714D01*
X176987858Y-138822857D01*
X176987858Y-137608571D01*
X177487858Y-137608571D02*
X178345001Y-137608571D01*
X177916430Y-139108571D02*
X177916430Y-137608571D01*
X178845001Y-139108571D02*
X178845001Y-137608571D01*
X179845001Y-137608571D02*
X180130715Y-137608571D01*
X180273573Y-137680000D01*
X180416430Y-137822857D01*
X180487858Y-138108571D01*
X180487858Y-138608571D01*
X180416430Y-138894286D01*
X180273573Y-139037143D01*
X180130715Y-139108571D01*
X179845001Y-139108571D01*
X179702144Y-139037143D01*
X179559287Y-138894286D01*
X179487858Y-138608571D01*
X179487858Y-138108571D01*
X179559287Y-137822857D01*
X179702144Y-137680000D01*
X179845001Y-137608571D01*
X181130716Y-139108571D02*
X181130716Y-137608571D01*
X181987859Y-139108571D01*
X181987859Y-137608571D01*
X184345002Y-138322857D02*
X184559288Y-138394286D01*
X184630716Y-138465714D01*
X184702145Y-138608571D01*
X184702145Y-138822857D01*
X184630716Y-138965714D01*
X184559288Y-139037143D01*
X184416430Y-139108571D01*
X183845002Y-139108571D01*
X183845002Y-137608571D01*
X184345002Y-137608571D01*
X184487859Y-137680000D01*
X184559288Y-137751429D01*
X184630716Y-137894286D01*
X184630716Y-138037143D01*
X184559288Y-138180000D01*
X184487859Y-138251429D01*
X184345002Y-138322857D01*
X183845002Y-138322857D01*
X185630716Y-137608571D02*
X185916430Y-137608571D01*
X186059288Y-137680000D01*
X186202145Y-137822857D01*
X186273573Y-138108571D01*
X186273573Y-138608571D01*
X186202145Y-138894286D01*
X186059288Y-139037143D01*
X185916430Y-139108571D01*
X185630716Y-139108571D01*
X185487859Y-139037143D01*
X185345002Y-138894286D01*
X185273573Y-138608571D01*
X185273573Y-138108571D01*
X185345002Y-137822857D01*
X185487859Y-137680000D01*
X185630716Y-137608571D01*
X186845002Y-138680000D02*
X187559288Y-138680000D01*
X186702145Y-139108571D02*
X187202145Y-137608571D01*
X187702145Y-139108571D01*
X189059288Y-139108571D02*
X188559288Y-138394286D01*
X188202145Y-139108571D02*
X188202145Y-137608571D01*
X188773573Y-137608571D01*
X188916431Y-137680000D01*
X188987859Y-137751429D01*
X189059288Y-137894286D01*
X189059288Y-138108571D01*
X188987859Y-138251429D01*
X188916431Y-138322857D01*
X188773573Y-138394286D01*
X188202145Y-138394286D01*
X189702145Y-139108571D02*
X189702145Y-137608571D01*
X190059288Y-137608571D01*
X190273573Y-137680000D01*
X190416431Y-137822857D01*
X190487859Y-137965714D01*
X190559288Y-138251429D01*
X190559288Y-138465714D01*
X190487859Y-138751429D01*
X190416431Y-138894286D01*
X190273573Y-139037143D01*
X190059288Y-139108571D01*
X189702145Y-139108571D01*
D11*
X101600000Y-140970000D02*
X101600000Y-87630000D01*
X208280000Y-140970000D02*
X104140000Y-140970000D01*
X210820000Y-87630000D02*
X210820000Y-140970000D01*
X104140000Y-87630000D02*
X208280000Y-87630000D01*
D13*
X107696000Y-137160000D02*
G75*
G03X107696000Y-137160000I-2286000J0D01*
G01*
X209296000Y-91440000D02*
G75*
G03X209296000Y-91440000I-2286000J0D01*
G01*
X209296000Y-137160000D02*
G75*
G03X209296000Y-137160000I-2286000J0D01*
G01*
D11*
X194056000Y-108458000D02*
X202184000Y-108458000D01*
X202184000Y-108458000D02*
X202184000Y-92202000D01*
X202184000Y-92202000D02*
X194056000Y-92202000D01*
X194056000Y-92202000D02*
X194056000Y-108458000D01*
X180086000Y-108458000D02*
X188214000Y-108458000D01*
X188214000Y-108458000D02*
X188214000Y-92202000D01*
X188214000Y-92202000D02*
X180086000Y-92202000D01*
X180086000Y-92202000D02*
X180086000Y-108458000D01*
X166116000Y-108458000D02*
X174244000Y-108458000D01*
X174244000Y-108458000D02*
X174244000Y-92202000D01*
X174244000Y-92202000D02*
X166116000Y-92202000D01*
X166116000Y-92202000D02*
X166116000Y-108458000D01*
X152146000Y-108458000D02*
X160274000Y-108458000D01*
X160274000Y-108458000D02*
X160274000Y-92202000D01*
X160274000Y-92202000D02*
X152146000Y-92202000D01*
X152146000Y-92202000D02*
X152146000Y-108458000D01*
X138176000Y-108458000D02*
X146304000Y-108458000D01*
X146304000Y-108458000D02*
X146304000Y-92202000D01*
X146304000Y-92202000D02*
X138176000Y-92202000D01*
X138176000Y-92202000D02*
X138176000Y-108458000D01*
X124206000Y-108458000D02*
X132334000Y-108458000D01*
X132334000Y-108458000D02*
X132334000Y-92202000D01*
X132334000Y-92202000D02*
X124206000Y-92202000D01*
X124206000Y-92202000D02*
X124206000Y-108458000D01*
X110236000Y-108458000D02*
X118364000Y-108458000D01*
X118364000Y-108458000D02*
X118364000Y-92202000D01*
X118364000Y-92202000D02*
X110236000Y-92202000D01*
X110236000Y-92202000D02*
X110236000Y-108458000D01*
D14*
X117665000Y-115825000D02*
X110935000Y-115825000D01*
X110935000Y-115825000D02*
X110935000Y-135635000D01*
X110935000Y-135635000D02*
X117665000Y-135635000D01*
X117665000Y-135635000D02*
X117665000Y-115825000D01*
X131635000Y-115825000D02*
X124905000Y-115825000D01*
X124905000Y-115825000D02*
X124905000Y-135635000D01*
X124905000Y-135635000D02*
X131635000Y-135635000D01*
X131635000Y-135635000D02*
X131635000Y-115825000D01*
X145605000Y-115825000D02*
X138875000Y-115825000D01*
X138875000Y-115825000D02*
X138875000Y-135635000D01*
X138875000Y-135635000D02*
X145605000Y-135635000D01*
X145605000Y-135635000D02*
X145605000Y-115825000D01*
X159575000Y-115825000D02*
X152845000Y-115825000D01*
X152845000Y-115825000D02*
X152845000Y-135635000D01*
X152845000Y-135635000D02*
X159575000Y-135635000D01*
X159575000Y-135635000D02*
X159575000Y-115825000D01*
X173545000Y-115825000D02*
X166815000Y-115825000D01*
X166815000Y-115825000D02*
X166815000Y-135635000D01*
X166815000Y-135635000D02*
X173545000Y-135635000D01*
X173545000Y-135635000D02*
X173545000Y-115825000D01*
X187515000Y-115825000D02*
X180785000Y-115825000D01*
X180785000Y-115825000D02*
X180785000Y-135635000D01*
X180785000Y-135635000D02*
X187515000Y-135635000D01*
X187515000Y-135635000D02*
X187515000Y-115825000D01*
X201485000Y-115825000D02*
X194755000Y-115825000D01*
X194755000Y-115825000D02*
X194755000Y-135635000D01*
X194755000Y-135635000D02*
X201485000Y-135635000D01*
X201485000Y-135635000D02*
X201485000Y-115825000D01*
D13*
X107696000Y-91440000D02*
G75*
G03X107696000Y-91440000I-2286000J0D01*
G01*
D11*
X202906381Y-100663333D02*
X203620667Y-100663333D01*
X203763524Y-100710953D01*
X203858762Y-100806191D01*
X203906381Y-100949048D01*
X203906381Y-101044286D01*
X203906381Y-99663333D02*
X203906381Y-100234762D01*
X203906381Y-99949048D02*
X202906381Y-99949048D01*
X203049238Y-100044286D01*
X203144476Y-100139524D01*
X203192095Y-100234762D01*
X188936381Y-100663333D02*
X189650667Y-100663333D01*
X189793524Y-100710953D01*
X189888762Y-100806191D01*
X189936381Y-100949048D01*
X189936381Y-101044286D01*
X189031619Y-100234762D02*
X188984000Y-100187143D01*
X188936381Y-100091905D01*
X188936381Y-99853809D01*
X188984000Y-99758571D01*
X189031619Y-99710952D01*
X189126857Y-99663333D01*
X189222095Y-99663333D01*
X189364952Y-99710952D01*
X189936381Y-100282381D01*
X189936381Y-99663333D01*
X174966381Y-100663333D02*
X175680667Y-100663333D01*
X175823524Y-100710953D01*
X175918762Y-100806191D01*
X175966381Y-100949048D01*
X175966381Y-101044286D01*
X174966381Y-100282381D02*
X174966381Y-99663333D01*
X175347333Y-99996667D01*
X175347333Y-99853809D01*
X175394952Y-99758571D01*
X175442571Y-99710952D01*
X175537810Y-99663333D01*
X175775905Y-99663333D01*
X175871143Y-99710952D01*
X175918762Y-99758571D01*
X175966381Y-99853809D01*
X175966381Y-100139524D01*
X175918762Y-100234762D01*
X175871143Y-100282381D01*
X160996381Y-100663333D02*
X161710667Y-100663333D01*
X161853524Y-100710953D01*
X161948762Y-100806191D01*
X161996381Y-100949048D01*
X161996381Y-101044286D01*
X161329714Y-99758571D02*
X161996381Y-99758571D01*
X160948762Y-99996667D02*
X161663048Y-100234762D01*
X161663048Y-99615714D01*
X147026381Y-100663333D02*
X147740667Y-100663333D01*
X147883524Y-100710953D01*
X147978762Y-100806191D01*
X148026381Y-100949048D01*
X148026381Y-101044286D01*
X147026381Y-99710952D02*
X147026381Y-100187143D01*
X147502571Y-100234762D01*
X147454952Y-100187143D01*
X147407333Y-100091905D01*
X147407333Y-99853809D01*
X147454952Y-99758571D01*
X147502571Y-99710952D01*
X147597810Y-99663333D01*
X147835905Y-99663333D01*
X147931143Y-99710952D01*
X147978762Y-99758571D01*
X148026381Y-99853809D01*
X148026381Y-100091905D01*
X147978762Y-100187143D01*
X147931143Y-100234762D01*
X133056381Y-100663333D02*
X133770667Y-100663333D01*
X133913524Y-100710953D01*
X134008762Y-100806191D01*
X134056381Y-100949048D01*
X134056381Y-101044286D01*
X133056381Y-99758571D02*
X133056381Y-99949048D01*
X133104000Y-100044286D01*
X133151619Y-100091905D01*
X133294476Y-100187143D01*
X133484952Y-100234762D01*
X133865905Y-100234762D01*
X133961143Y-100187143D01*
X134008762Y-100139524D01*
X134056381Y-100044286D01*
X134056381Y-99853809D01*
X134008762Y-99758571D01*
X133961143Y-99710952D01*
X133865905Y-99663333D01*
X133627810Y-99663333D01*
X133532571Y-99710952D01*
X133484952Y-99758571D01*
X133437333Y-99853809D01*
X133437333Y-100044286D01*
X133484952Y-100139524D01*
X133532571Y-100187143D01*
X133627810Y-100234762D01*
X119086381Y-100663333D02*
X119800667Y-100663333D01*
X119943524Y-100710953D01*
X120038762Y-100806191D01*
X120086381Y-100949048D01*
X120086381Y-101044286D01*
X119086381Y-100282381D02*
X119086381Y-99615714D01*
X120086381Y-100044286D01*
D15*
X118363571Y-118823333D02*
X118363571Y-119156667D01*
X118887381Y-119156667D02*
X117887381Y-119156667D01*
X117887381Y-118680476D01*
X117887381Y-118394762D02*
X117887381Y-117728095D01*
X118887381Y-118156667D01*
X109457381Y-122022143D02*
X109457381Y-121403095D01*
X109838333Y-121736429D01*
X109838333Y-121593571D01*
X109885952Y-121498333D01*
X109933571Y-121450714D01*
X110028810Y-121403095D01*
X110266905Y-121403095D01*
X110362143Y-121450714D01*
X110409762Y-121498333D01*
X110457381Y-121593571D01*
X110457381Y-121879286D01*
X110409762Y-121974524D01*
X110362143Y-122022143D01*
X109457381Y-120498333D02*
X109457381Y-120974524D01*
X109933571Y-121022143D01*
X109885952Y-120974524D01*
X109838333Y-120879286D01*
X109838333Y-120641190D01*
X109885952Y-120545952D01*
X109933571Y-120498333D01*
X110028810Y-120450714D01*
X110266905Y-120450714D01*
X110362143Y-120498333D01*
X110409762Y-120545952D01*
X110457381Y-120641190D01*
X110457381Y-120879286D01*
X110409762Y-120974524D01*
X110362143Y-121022143D01*
X109457381Y-119545952D02*
X109457381Y-120022143D01*
X109933571Y-120069762D01*
X109885952Y-120022143D01*
X109838333Y-119926905D01*
X109838333Y-119688809D01*
X109885952Y-119593571D01*
X109933571Y-119545952D01*
X110028810Y-119498333D01*
X110266905Y-119498333D01*
X110362143Y-119545952D01*
X110409762Y-119593571D01*
X110457381Y-119688809D01*
X110457381Y-119926905D01*
X110409762Y-120022143D01*
X110362143Y-120069762D01*
X109457381Y-119165000D02*
X109457381Y-118498333D01*
X110457381Y-118926905D01*
X110076429Y-118117381D02*
X110076429Y-117355476D01*
X109552619Y-116926905D02*
X109505000Y-116879286D01*
X109457381Y-116784048D01*
X109457381Y-116545952D01*
X109505000Y-116450714D01*
X109552619Y-116403095D01*
X109647857Y-116355476D01*
X109743095Y-116355476D01*
X109885952Y-116403095D01*
X110457381Y-116974524D01*
X110457381Y-116355476D01*
X132333571Y-118823333D02*
X132333571Y-119156667D01*
X132857381Y-119156667D02*
X131857381Y-119156667D01*
X131857381Y-118680476D01*
X131857381Y-117870952D02*
X131857381Y-118061429D01*
X131905000Y-118156667D01*
X131952619Y-118204286D01*
X132095476Y-118299524D01*
X132285952Y-118347143D01*
X132666905Y-118347143D01*
X132762143Y-118299524D01*
X132809762Y-118251905D01*
X132857381Y-118156667D01*
X132857381Y-117966190D01*
X132809762Y-117870952D01*
X132762143Y-117823333D01*
X132666905Y-117775714D01*
X132428810Y-117775714D01*
X132333571Y-117823333D01*
X132285952Y-117870952D01*
X132238333Y-117966190D01*
X132238333Y-118156667D01*
X132285952Y-118251905D01*
X132333571Y-118299524D01*
X132428810Y-118347143D01*
X123427381Y-122022143D02*
X123427381Y-121403095D01*
X123808333Y-121736429D01*
X123808333Y-121593571D01*
X123855952Y-121498333D01*
X123903571Y-121450714D01*
X123998810Y-121403095D01*
X124236905Y-121403095D01*
X124332143Y-121450714D01*
X124379762Y-121498333D01*
X124427381Y-121593571D01*
X124427381Y-121879286D01*
X124379762Y-121974524D01*
X124332143Y-122022143D01*
X123427381Y-120498333D02*
X123427381Y-120974524D01*
X123903571Y-121022143D01*
X123855952Y-120974524D01*
X123808333Y-120879286D01*
X123808333Y-120641190D01*
X123855952Y-120545952D01*
X123903571Y-120498333D01*
X123998810Y-120450714D01*
X124236905Y-120450714D01*
X124332143Y-120498333D01*
X124379762Y-120545952D01*
X124427381Y-120641190D01*
X124427381Y-120879286D01*
X124379762Y-120974524D01*
X124332143Y-121022143D01*
X123427381Y-119545952D02*
X123427381Y-120022143D01*
X123903571Y-120069762D01*
X123855952Y-120022143D01*
X123808333Y-119926905D01*
X123808333Y-119688809D01*
X123855952Y-119593571D01*
X123903571Y-119545952D01*
X123998810Y-119498333D01*
X124236905Y-119498333D01*
X124332143Y-119545952D01*
X124379762Y-119593571D01*
X124427381Y-119688809D01*
X124427381Y-119926905D01*
X124379762Y-120022143D01*
X124332143Y-120069762D01*
X123427381Y-119165000D02*
X123427381Y-118498333D01*
X124427381Y-118926905D01*
X124046429Y-118117381D02*
X124046429Y-117355476D01*
X123522619Y-116926905D02*
X123475000Y-116879286D01*
X123427381Y-116784048D01*
X123427381Y-116545952D01*
X123475000Y-116450714D01*
X123522619Y-116403095D01*
X123617857Y-116355476D01*
X123713095Y-116355476D01*
X123855952Y-116403095D01*
X124427381Y-116974524D01*
X124427381Y-116355476D01*
X146303571Y-118823333D02*
X146303571Y-119156667D01*
X146827381Y-119156667D02*
X145827381Y-119156667D01*
X145827381Y-118680476D01*
X145827381Y-117823333D02*
X145827381Y-118299524D01*
X146303571Y-118347143D01*
X146255952Y-118299524D01*
X146208333Y-118204286D01*
X146208333Y-117966190D01*
X146255952Y-117870952D01*
X146303571Y-117823333D01*
X146398810Y-117775714D01*
X146636905Y-117775714D01*
X146732143Y-117823333D01*
X146779762Y-117870952D01*
X146827381Y-117966190D01*
X146827381Y-118204286D01*
X146779762Y-118299524D01*
X146732143Y-118347143D01*
X137397381Y-122022143D02*
X137397381Y-121403095D01*
X137778333Y-121736429D01*
X137778333Y-121593571D01*
X137825952Y-121498333D01*
X137873571Y-121450714D01*
X137968810Y-121403095D01*
X138206905Y-121403095D01*
X138302143Y-121450714D01*
X138349762Y-121498333D01*
X138397381Y-121593571D01*
X138397381Y-121879286D01*
X138349762Y-121974524D01*
X138302143Y-122022143D01*
X137397381Y-120498333D02*
X137397381Y-120974524D01*
X137873571Y-121022143D01*
X137825952Y-120974524D01*
X137778333Y-120879286D01*
X137778333Y-120641190D01*
X137825952Y-120545952D01*
X137873571Y-120498333D01*
X137968810Y-120450714D01*
X138206905Y-120450714D01*
X138302143Y-120498333D01*
X138349762Y-120545952D01*
X138397381Y-120641190D01*
X138397381Y-120879286D01*
X138349762Y-120974524D01*
X138302143Y-121022143D01*
X137397381Y-119545952D02*
X137397381Y-120022143D01*
X137873571Y-120069762D01*
X137825952Y-120022143D01*
X137778333Y-119926905D01*
X137778333Y-119688809D01*
X137825952Y-119593571D01*
X137873571Y-119545952D01*
X137968810Y-119498333D01*
X138206905Y-119498333D01*
X138302143Y-119545952D01*
X138349762Y-119593571D01*
X138397381Y-119688809D01*
X138397381Y-119926905D01*
X138349762Y-120022143D01*
X138302143Y-120069762D01*
X137397381Y-119165000D02*
X137397381Y-118498333D01*
X138397381Y-118926905D01*
X138016429Y-118117381D02*
X138016429Y-117355476D01*
X137492619Y-116926905D02*
X137445000Y-116879286D01*
X137397381Y-116784048D01*
X137397381Y-116545952D01*
X137445000Y-116450714D01*
X137492619Y-116403095D01*
X137587857Y-116355476D01*
X137683095Y-116355476D01*
X137825952Y-116403095D01*
X138397381Y-116974524D01*
X138397381Y-116355476D01*
X160273571Y-118823333D02*
X160273571Y-119156667D01*
X160797381Y-119156667D02*
X159797381Y-119156667D01*
X159797381Y-118680476D01*
X160130714Y-117870952D02*
X160797381Y-117870952D01*
X159749762Y-118109048D02*
X160464048Y-118347143D01*
X160464048Y-117728095D01*
X151367381Y-122022143D02*
X151367381Y-121403095D01*
X151748333Y-121736429D01*
X151748333Y-121593571D01*
X151795952Y-121498333D01*
X151843571Y-121450714D01*
X151938810Y-121403095D01*
X152176905Y-121403095D01*
X152272143Y-121450714D01*
X152319762Y-121498333D01*
X152367381Y-121593571D01*
X152367381Y-121879286D01*
X152319762Y-121974524D01*
X152272143Y-122022143D01*
X151367381Y-120498333D02*
X151367381Y-120974524D01*
X151843571Y-121022143D01*
X151795952Y-120974524D01*
X151748333Y-120879286D01*
X151748333Y-120641190D01*
X151795952Y-120545952D01*
X151843571Y-120498333D01*
X151938810Y-120450714D01*
X152176905Y-120450714D01*
X152272143Y-120498333D01*
X152319762Y-120545952D01*
X152367381Y-120641190D01*
X152367381Y-120879286D01*
X152319762Y-120974524D01*
X152272143Y-121022143D01*
X151367381Y-119545952D02*
X151367381Y-120022143D01*
X151843571Y-120069762D01*
X151795952Y-120022143D01*
X151748333Y-119926905D01*
X151748333Y-119688809D01*
X151795952Y-119593571D01*
X151843571Y-119545952D01*
X151938810Y-119498333D01*
X152176905Y-119498333D01*
X152272143Y-119545952D01*
X152319762Y-119593571D01*
X152367381Y-119688809D01*
X152367381Y-119926905D01*
X152319762Y-120022143D01*
X152272143Y-120069762D01*
X151367381Y-119165000D02*
X151367381Y-118498333D01*
X152367381Y-118926905D01*
X151986429Y-118117381D02*
X151986429Y-117355476D01*
X151462619Y-116926905D02*
X151415000Y-116879286D01*
X151367381Y-116784048D01*
X151367381Y-116545952D01*
X151415000Y-116450714D01*
X151462619Y-116403095D01*
X151557857Y-116355476D01*
X151653095Y-116355476D01*
X151795952Y-116403095D01*
X152367381Y-116974524D01*
X152367381Y-116355476D01*
X174243571Y-118823333D02*
X174243571Y-119156667D01*
X174767381Y-119156667D02*
X173767381Y-119156667D01*
X173767381Y-118680476D01*
X173767381Y-118394762D02*
X173767381Y-117775714D01*
X174148333Y-118109048D01*
X174148333Y-117966190D01*
X174195952Y-117870952D01*
X174243571Y-117823333D01*
X174338810Y-117775714D01*
X174576905Y-117775714D01*
X174672143Y-117823333D01*
X174719762Y-117870952D01*
X174767381Y-117966190D01*
X174767381Y-118251905D01*
X174719762Y-118347143D01*
X174672143Y-118394762D01*
X165337381Y-122022143D02*
X165337381Y-121403095D01*
X165718333Y-121736429D01*
X165718333Y-121593571D01*
X165765952Y-121498333D01*
X165813571Y-121450714D01*
X165908810Y-121403095D01*
X166146905Y-121403095D01*
X166242143Y-121450714D01*
X166289762Y-121498333D01*
X166337381Y-121593571D01*
X166337381Y-121879286D01*
X166289762Y-121974524D01*
X166242143Y-122022143D01*
X165337381Y-120498333D02*
X165337381Y-120974524D01*
X165813571Y-121022143D01*
X165765952Y-120974524D01*
X165718333Y-120879286D01*
X165718333Y-120641190D01*
X165765952Y-120545952D01*
X165813571Y-120498333D01*
X165908810Y-120450714D01*
X166146905Y-120450714D01*
X166242143Y-120498333D01*
X166289762Y-120545952D01*
X166337381Y-120641190D01*
X166337381Y-120879286D01*
X166289762Y-120974524D01*
X166242143Y-121022143D01*
X165337381Y-119545952D02*
X165337381Y-120022143D01*
X165813571Y-120069762D01*
X165765952Y-120022143D01*
X165718333Y-119926905D01*
X165718333Y-119688809D01*
X165765952Y-119593571D01*
X165813571Y-119545952D01*
X165908810Y-119498333D01*
X166146905Y-119498333D01*
X166242143Y-119545952D01*
X166289762Y-119593571D01*
X166337381Y-119688809D01*
X166337381Y-119926905D01*
X166289762Y-120022143D01*
X166242143Y-120069762D01*
X165337381Y-119165000D02*
X165337381Y-118498333D01*
X166337381Y-118926905D01*
X165956429Y-118117381D02*
X165956429Y-117355476D01*
X165432619Y-116926905D02*
X165385000Y-116879286D01*
X165337381Y-116784048D01*
X165337381Y-116545952D01*
X165385000Y-116450714D01*
X165432619Y-116403095D01*
X165527857Y-116355476D01*
X165623095Y-116355476D01*
X165765952Y-116403095D01*
X166337381Y-116974524D01*
X166337381Y-116355476D01*
X188213571Y-118823333D02*
X188213571Y-119156667D01*
X188737381Y-119156667D02*
X187737381Y-119156667D01*
X187737381Y-118680476D01*
X187832619Y-118347143D02*
X187785000Y-118299524D01*
X187737381Y-118204286D01*
X187737381Y-117966190D01*
X187785000Y-117870952D01*
X187832619Y-117823333D01*
X187927857Y-117775714D01*
X188023095Y-117775714D01*
X188165952Y-117823333D01*
X188737381Y-118394762D01*
X188737381Y-117775714D01*
X179307381Y-122022143D02*
X179307381Y-121403095D01*
X179688333Y-121736429D01*
X179688333Y-121593571D01*
X179735952Y-121498333D01*
X179783571Y-121450714D01*
X179878810Y-121403095D01*
X180116905Y-121403095D01*
X180212143Y-121450714D01*
X180259762Y-121498333D01*
X180307381Y-121593571D01*
X180307381Y-121879286D01*
X180259762Y-121974524D01*
X180212143Y-122022143D01*
X179307381Y-120498333D02*
X179307381Y-120974524D01*
X179783571Y-121022143D01*
X179735952Y-120974524D01*
X179688333Y-120879286D01*
X179688333Y-120641190D01*
X179735952Y-120545952D01*
X179783571Y-120498333D01*
X179878810Y-120450714D01*
X180116905Y-120450714D01*
X180212143Y-120498333D01*
X180259762Y-120545952D01*
X180307381Y-120641190D01*
X180307381Y-120879286D01*
X180259762Y-120974524D01*
X180212143Y-121022143D01*
X179307381Y-119545952D02*
X179307381Y-120022143D01*
X179783571Y-120069762D01*
X179735952Y-120022143D01*
X179688333Y-119926905D01*
X179688333Y-119688809D01*
X179735952Y-119593571D01*
X179783571Y-119545952D01*
X179878810Y-119498333D01*
X180116905Y-119498333D01*
X180212143Y-119545952D01*
X180259762Y-119593571D01*
X180307381Y-119688809D01*
X180307381Y-119926905D01*
X180259762Y-120022143D01*
X180212143Y-120069762D01*
X179307381Y-119165000D02*
X179307381Y-118498333D01*
X180307381Y-118926905D01*
X179926429Y-118117381D02*
X179926429Y-117355476D01*
X179402619Y-116926905D02*
X179355000Y-116879286D01*
X179307381Y-116784048D01*
X179307381Y-116545952D01*
X179355000Y-116450714D01*
X179402619Y-116403095D01*
X179497857Y-116355476D01*
X179593095Y-116355476D01*
X179735952Y-116403095D01*
X180307381Y-116974524D01*
X180307381Y-116355476D01*
X202183571Y-118823333D02*
X202183571Y-119156667D01*
X202707381Y-119156667D02*
X201707381Y-119156667D01*
X201707381Y-118680476D01*
X202707381Y-117775714D02*
X202707381Y-118347143D01*
X202707381Y-118061429D02*
X201707381Y-118061429D01*
X201850238Y-118156667D01*
X201945476Y-118251905D01*
X201993095Y-118347143D01*
X193277381Y-122022143D02*
X193277381Y-121403095D01*
X193658333Y-121736429D01*
X193658333Y-121593571D01*
X193705952Y-121498333D01*
X193753571Y-121450714D01*
X193848810Y-121403095D01*
X194086905Y-121403095D01*
X194182143Y-121450714D01*
X194229762Y-121498333D01*
X194277381Y-121593571D01*
X194277381Y-121879286D01*
X194229762Y-121974524D01*
X194182143Y-122022143D01*
X193277381Y-120498333D02*
X193277381Y-120974524D01*
X193753571Y-121022143D01*
X193705952Y-120974524D01*
X193658333Y-120879286D01*
X193658333Y-120641190D01*
X193705952Y-120545952D01*
X193753571Y-120498333D01*
X193848810Y-120450714D01*
X194086905Y-120450714D01*
X194182143Y-120498333D01*
X194229762Y-120545952D01*
X194277381Y-120641190D01*
X194277381Y-120879286D01*
X194229762Y-120974524D01*
X194182143Y-121022143D01*
X193277381Y-119545952D02*
X193277381Y-120022143D01*
X193753571Y-120069762D01*
X193705952Y-120022143D01*
X193658333Y-119926905D01*
X193658333Y-119688809D01*
X193705952Y-119593571D01*
X193753571Y-119545952D01*
X193848810Y-119498333D01*
X194086905Y-119498333D01*
X194182143Y-119545952D01*
X194229762Y-119593571D01*
X194277381Y-119688809D01*
X194277381Y-119926905D01*
X194229762Y-120022143D01*
X194182143Y-120069762D01*
X193277381Y-119165000D02*
X193277381Y-118498333D01*
X194277381Y-118926905D01*
X193896429Y-118117381D02*
X193896429Y-117355476D01*
X193372619Y-116926905D02*
X193325000Y-116879286D01*
X193277381Y-116784048D01*
X193277381Y-116545952D01*
X193325000Y-116450714D01*
X193372619Y-116403095D01*
X193467857Y-116355476D01*
X193563095Y-116355476D01*
X193705952Y-116403095D01*
X194277381Y-116974524D01*
X194277381Y-116355476D01*
M02*
