G04 #@! TF.FileFunction,Legend,Top*
%FSLAX46Y46*%
G04 Gerber Fmt 4.6, Leading zero omitted, Abs format (unit mm)*
G04 Created by KiCad (PCBNEW 4.0.6) date 06/22/17 12:13:26*
%MOMM*%
%LPD*%
G01*
G04 APERTURE LIST*
%ADD10C,0.100000*%
%ADD11C,0.200000*%
%ADD12C,0.050000*%
%ADD13C,0.127000*%
%ADD14C,0.150000*%
G04 APERTURE END LIST*
D10*
X106466429Y-80097381D02*
X106561668Y-80097381D01*
X106656906Y-80145000D01*
X106704525Y-80192619D01*
X106752144Y-80287857D01*
X106799763Y-80478333D01*
X106799763Y-80716429D01*
X106752144Y-80906905D01*
X106704525Y-81002143D01*
X106656906Y-81049762D01*
X106561668Y-81097381D01*
X106466429Y-81097381D01*
X106371191Y-81049762D01*
X106323572Y-81002143D01*
X106275953Y-80906905D01*
X106228334Y-80716429D01*
X106228334Y-80478333D01*
X106275953Y-80287857D01*
X106323572Y-80192619D01*
X106371191Y-80145000D01*
X106466429Y-80097381D01*
X107228334Y-81002143D02*
X107275953Y-81049762D01*
X107228334Y-81097381D01*
X107180715Y-81049762D01*
X107228334Y-81002143D01*
X107228334Y-81097381D01*
X108133096Y-80430714D02*
X108133096Y-81097381D01*
X107895000Y-80049762D02*
X107656905Y-80764048D01*
X108275953Y-80764048D01*
X109133096Y-80097381D02*
X108656905Y-80097381D01*
X108609286Y-80573571D01*
X108656905Y-80525952D01*
X108752143Y-80478333D01*
X108990239Y-80478333D01*
X109085477Y-80525952D01*
X109133096Y-80573571D01*
X109180715Y-80668810D01*
X109180715Y-80906905D01*
X109133096Y-81002143D01*
X109085477Y-81049762D01*
X108990239Y-81097381D01*
X108752143Y-81097381D01*
X108656905Y-81049762D01*
X108609286Y-81002143D01*
X109609286Y-81097381D02*
X109609286Y-80430714D01*
X109609286Y-80097381D02*
X109561667Y-80145000D01*
X109609286Y-80192619D01*
X109656905Y-80145000D01*
X109609286Y-80097381D01*
X109609286Y-80192619D01*
X110085476Y-80430714D02*
X110085476Y-81097381D01*
X110085476Y-80525952D02*
X110133095Y-80478333D01*
X110228333Y-80430714D01*
X110371191Y-80430714D01*
X110466429Y-80478333D01*
X110514048Y-80573571D01*
X110514048Y-81097381D01*
X111704524Y-80049762D02*
X110847381Y-81335476D01*
X112561667Y-81097381D02*
X111990238Y-81097381D01*
X112275952Y-81097381D02*
X112275952Y-80097381D01*
X112180714Y-80240238D01*
X112085476Y-80335476D01*
X111990238Y-80383095D01*
X113514048Y-81097381D02*
X112942619Y-81097381D01*
X113228333Y-81097381D02*
X113228333Y-80097381D01*
X113133095Y-80240238D01*
X113037857Y-80335476D01*
X112942619Y-80383095D01*
X113942619Y-81002143D02*
X113990238Y-81049762D01*
X113942619Y-81097381D01*
X113895000Y-81049762D01*
X113942619Y-81002143D01*
X113942619Y-81097381D01*
X114847381Y-80430714D02*
X114847381Y-81097381D01*
X114609285Y-80049762D02*
X114371190Y-80764048D01*
X114990238Y-80764048D01*
X115275952Y-80097381D02*
X115895000Y-80097381D01*
X115561666Y-80478333D01*
X115704524Y-80478333D01*
X115799762Y-80525952D01*
X115847381Y-80573571D01*
X115895000Y-80668810D01*
X115895000Y-80906905D01*
X115847381Y-81002143D01*
X115799762Y-81049762D01*
X115704524Y-81097381D01*
X115418809Y-81097381D01*
X115323571Y-81049762D01*
X115275952Y-81002143D01*
X116323571Y-81097381D02*
X116323571Y-80430714D01*
X116323571Y-80525952D02*
X116371190Y-80478333D01*
X116466428Y-80430714D01*
X116609286Y-80430714D01*
X116704524Y-80478333D01*
X116752143Y-80573571D01*
X116752143Y-81097381D01*
X116752143Y-80573571D02*
X116799762Y-80478333D01*
X116895000Y-80430714D01*
X117037857Y-80430714D01*
X117133095Y-80478333D01*
X117180714Y-80573571D01*
X117180714Y-81097381D01*
X117656904Y-81097381D02*
X117656904Y-80430714D01*
X117656904Y-80525952D02*
X117704523Y-80478333D01*
X117799761Y-80430714D01*
X117942619Y-80430714D01*
X118037857Y-80478333D01*
X118085476Y-80573571D01*
X118085476Y-81097381D01*
X118085476Y-80573571D02*
X118133095Y-80478333D01*
X118228333Y-80430714D01*
X118371190Y-80430714D01*
X118466428Y-80478333D01*
X118514047Y-80573571D01*
X118514047Y-81097381D01*
X134914525Y-79462381D02*
X135533573Y-79462381D01*
X135200239Y-79843333D01*
X135343097Y-79843333D01*
X135438335Y-79890952D01*
X135485954Y-79938571D01*
X135533573Y-80033810D01*
X135533573Y-80271905D01*
X135485954Y-80367143D01*
X135438335Y-80414762D01*
X135343097Y-80462381D01*
X135057382Y-80462381D01*
X134962144Y-80414762D01*
X134914525Y-80367143D01*
X135962144Y-80367143D02*
X136009763Y-80414762D01*
X135962144Y-80462381D01*
X135914525Y-80414762D01*
X135962144Y-80367143D01*
X135962144Y-80462381D01*
X136866906Y-79795714D02*
X136866906Y-80462381D01*
X136628810Y-79414762D02*
X136390715Y-80129048D01*
X137009763Y-80129048D01*
X137343096Y-79557619D02*
X137390715Y-79510000D01*
X137485953Y-79462381D01*
X137724049Y-79462381D01*
X137819287Y-79510000D01*
X137866906Y-79557619D01*
X137914525Y-79652857D01*
X137914525Y-79748095D01*
X137866906Y-79890952D01*
X137295477Y-80462381D01*
X137914525Y-80462381D01*
X138819287Y-79462381D02*
X138343096Y-79462381D01*
X138295477Y-79938571D01*
X138343096Y-79890952D01*
X138438334Y-79843333D01*
X138676430Y-79843333D01*
X138771668Y-79890952D01*
X138819287Y-79938571D01*
X138866906Y-80033810D01*
X138866906Y-80271905D01*
X138819287Y-80367143D01*
X138771668Y-80414762D01*
X138676430Y-80462381D01*
X138438334Y-80462381D01*
X138343096Y-80414762D01*
X138295477Y-80367143D01*
X139295477Y-80462381D02*
X139295477Y-79795714D01*
X139295477Y-79462381D02*
X139247858Y-79510000D01*
X139295477Y-79557619D01*
X139343096Y-79510000D01*
X139295477Y-79462381D01*
X139295477Y-79557619D01*
X139771667Y-79795714D02*
X139771667Y-80462381D01*
X139771667Y-79890952D02*
X139819286Y-79843333D01*
X139914524Y-79795714D01*
X140057382Y-79795714D01*
X140152620Y-79843333D01*
X140200239Y-79938571D01*
X140200239Y-80462381D01*
X141390715Y-79414762D02*
X140533572Y-80700476D01*
X141866905Y-79890952D02*
X141771667Y-79843333D01*
X141724048Y-79795714D01*
X141676429Y-79700476D01*
X141676429Y-79652857D01*
X141724048Y-79557619D01*
X141771667Y-79510000D01*
X141866905Y-79462381D01*
X142057382Y-79462381D01*
X142152620Y-79510000D01*
X142200239Y-79557619D01*
X142247858Y-79652857D01*
X142247858Y-79700476D01*
X142200239Y-79795714D01*
X142152620Y-79843333D01*
X142057382Y-79890952D01*
X141866905Y-79890952D01*
X141771667Y-79938571D01*
X141724048Y-79986190D01*
X141676429Y-80081429D01*
X141676429Y-80271905D01*
X141724048Y-80367143D01*
X141771667Y-80414762D01*
X141866905Y-80462381D01*
X142057382Y-80462381D01*
X142152620Y-80414762D01*
X142200239Y-80367143D01*
X142247858Y-80271905D01*
X142247858Y-80081429D01*
X142200239Y-79986190D01*
X142152620Y-79938571D01*
X142057382Y-79890952D01*
X142581191Y-79462381D02*
X143247858Y-79462381D01*
X142819286Y-80462381D01*
X143628810Y-80367143D02*
X143676429Y-80414762D01*
X143628810Y-80462381D01*
X143581191Y-80414762D01*
X143628810Y-80367143D01*
X143628810Y-80462381D01*
X144295476Y-79462381D02*
X144390715Y-79462381D01*
X144485953Y-79510000D01*
X144533572Y-79557619D01*
X144581191Y-79652857D01*
X144628810Y-79843333D01*
X144628810Y-80081429D01*
X144581191Y-80271905D01*
X144533572Y-80367143D01*
X144485953Y-80414762D01*
X144390715Y-80462381D01*
X144295476Y-80462381D01*
X144200238Y-80414762D01*
X144152619Y-80367143D01*
X144105000Y-80271905D01*
X144057381Y-80081429D01*
X144057381Y-79843333D01*
X144105000Y-79652857D01*
X144152619Y-79557619D01*
X144200238Y-79510000D01*
X144295476Y-79462381D01*
X145247857Y-79462381D02*
X145343096Y-79462381D01*
X145438334Y-79510000D01*
X145485953Y-79557619D01*
X145533572Y-79652857D01*
X145581191Y-79843333D01*
X145581191Y-80081429D01*
X145533572Y-80271905D01*
X145485953Y-80367143D01*
X145438334Y-80414762D01*
X145343096Y-80462381D01*
X145247857Y-80462381D01*
X145152619Y-80414762D01*
X145105000Y-80367143D01*
X145057381Y-80271905D01*
X145009762Y-80081429D01*
X145009762Y-79843333D01*
X145057381Y-79652857D01*
X145105000Y-79557619D01*
X145152619Y-79510000D01*
X145247857Y-79462381D01*
X146009762Y-80462381D02*
X146009762Y-79795714D01*
X146009762Y-79890952D02*
X146057381Y-79843333D01*
X146152619Y-79795714D01*
X146295477Y-79795714D01*
X146390715Y-79843333D01*
X146438334Y-79938571D01*
X146438334Y-80462381D01*
X146438334Y-79938571D02*
X146485953Y-79843333D01*
X146581191Y-79795714D01*
X146724048Y-79795714D01*
X146819286Y-79843333D01*
X146866905Y-79938571D01*
X146866905Y-80462381D01*
X147343095Y-80462381D02*
X147343095Y-79795714D01*
X147343095Y-79890952D02*
X147390714Y-79843333D01*
X147485952Y-79795714D01*
X147628810Y-79795714D01*
X147724048Y-79843333D01*
X147771667Y-79938571D01*
X147771667Y-80462381D01*
X147771667Y-79938571D02*
X147819286Y-79843333D01*
X147914524Y-79795714D01*
X148057381Y-79795714D01*
X148152619Y-79843333D01*
X148200238Y-79938571D01*
X148200238Y-80462381D01*
X97607381Y-107195237D02*
X97607381Y-107766666D01*
X97607381Y-107480952D02*
X96607381Y-107480952D01*
X96750238Y-107576190D01*
X96845476Y-107671428D01*
X96893095Y-107766666D01*
X97512143Y-106766666D02*
X97559762Y-106719047D01*
X97607381Y-106766666D01*
X97559762Y-106814285D01*
X97512143Y-106766666D01*
X97607381Y-106766666D01*
X96940714Y-105861904D02*
X97607381Y-105861904D01*
X96559762Y-106100000D02*
X97274048Y-106338095D01*
X97274048Y-105719047D01*
X96607381Y-104861904D02*
X96607381Y-105338095D01*
X97083571Y-105385714D01*
X97035952Y-105338095D01*
X96988333Y-105242857D01*
X96988333Y-105004761D01*
X97035952Y-104909523D01*
X97083571Y-104861904D01*
X97178810Y-104814285D01*
X97416905Y-104814285D01*
X97512143Y-104861904D01*
X97559762Y-104909523D01*
X97607381Y-105004761D01*
X97607381Y-105242857D01*
X97559762Y-105338095D01*
X97512143Y-105385714D01*
X97607381Y-104385714D02*
X96940714Y-104385714D01*
X96607381Y-104385714D02*
X96655000Y-104433333D01*
X96702619Y-104385714D01*
X96655000Y-104338095D01*
X96607381Y-104385714D01*
X96702619Y-104385714D01*
X96940714Y-103909524D02*
X97607381Y-103909524D01*
X97035952Y-103909524D02*
X96988333Y-103861905D01*
X96940714Y-103766667D01*
X96940714Y-103623809D01*
X96988333Y-103528571D01*
X97083571Y-103480952D01*
X97607381Y-103480952D01*
X96559762Y-102290476D02*
X97845476Y-103147619D01*
X96607381Y-102052381D02*
X96607381Y-101433333D01*
X96988333Y-101766667D01*
X96988333Y-101623809D01*
X97035952Y-101528571D01*
X97083571Y-101480952D01*
X97178810Y-101433333D01*
X97416905Y-101433333D01*
X97512143Y-101480952D01*
X97559762Y-101528571D01*
X97607381Y-101623809D01*
X97607381Y-101909524D01*
X97559762Y-102004762D01*
X97512143Y-102052381D01*
X96607381Y-100576190D02*
X96607381Y-100766667D01*
X96655000Y-100861905D01*
X96702619Y-100909524D01*
X96845476Y-101004762D01*
X97035952Y-101052381D01*
X97416905Y-101052381D01*
X97512143Y-101004762D01*
X97559762Y-100957143D01*
X97607381Y-100861905D01*
X97607381Y-100671428D01*
X97559762Y-100576190D01*
X97512143Y-100528571D01*
X97416905Y-100480952D01*
X97178810Y-100480952D01*
X97083571Y-100528571D01*
X97035952Y-100576190D01*
X96988333Y-100671428D01*
X96988333Y-100861905D01*
X97035952Y-100957143D01*
X97083571Y-101004762D01*
X97178810Y-101052381D01*
X97512143Y-100052381D02*
X97559762Y-100004762D01*
X97607381Y-100052381D01*
X97559762Y-100100000D01*
X97512143Y-100052381D01*
X97607381Y-100052381D01*
X97035952Y-99433334D02*
X96988333Y-99528572D01*
X96940714Y-99576191D01*
X96845476Y-99623810D01*
X96797857Y-99623810D01*
X96702619Y-99576191D01*
X96655000Y-99528572D01*
X96607381Y-99433334D01*
X96607381Y-99242857D01*
X96655000Y-99147619D01*
X96702619Y-99100000D01*
X96797857Y-99052381D01*
X96845476Y-99052381D01*
X96940714Y-99100000D01*
X96988333Y-99147619D01*
X97035952Y-99242857D01*
X97035952Y-99433334D01*
X97083571Y-99528572D01*
X97131190Y-99576191D01*
X97226429Y-99623810D01*
X97416905Y-99623810D01*
X97512143Y-99576191D01*
X97559762Y-99528572D01*
X97607381Y-99433334D01*
X97607381Y-99242857D01*
X97559762Y-99147619D01*
X97512143Y-99100000D01*
X97416905Y-99052381D01*
X97226429Y-99052381D01*
X97131190Y-99100000D01*
X97083571Y-99147619D01*
X97035952Y-99242857D01*
X96607381Y-98719048D02*
X96607381Y-98100000D01*
X96988333Y-98433334D01*
X96988333Y-98290476D01*
X97035952Y-98195238D01*
X97083571Y-98147619D01*
X97178810Y-98100000D01*
X97416905Y-98100000D01*
X97512143Y-98147619D01*
X97559762Y-98195238D01*
X97607381Y-98290476D01*
X97607381Y-98576191D01*
X97559762Y-98671429D01*
X97512143Y-98719048D01*
X97607381Y-97671429D02*
X96940714Y-97671429D01*
X97035952Y-97671429D02*
X96988333Y-97623810D01*
X96940714Y-97528572D01*
X96940714Y-97385714D01*
X96988333Y-97290476D01*
X97083571Y-97242857D01*
X97607381Y-97242857D01*
X97083571Y-97242857D02*
X96988333Y-97195238D01*
X96940714Y-97100000D01*
X96940714Y-96957143D01*
X96988333Y-96861905D01*
X97083571Y-96814286D01*
X97607381Y-96814286D01*
X97607381Y-96338096D02*
X96940714Y-96338096D01*
X97035952Y-96338096D02*
X96988333Y-96290477D01*
X96940714Y-96195239D01*
X96940714Y-96052381D01*
X96988333Y-95957143D01*
X97083571Y-95909524D01*
X97607381Y-95909524D01*
X97083571Y-95909524D02*
X96988333Y-95861905D01*
X96940714Y-95766667D01*
X96940714Y-95623810D01*
X96988333Y-95528572D01*
X97083571Y-95480953D01*
X97607381Y-95480953D01*
D11*
X103862856Y-125138571D02*
X103862856Y-123638571D01*
X104719999Y-125138571D02*
X104077142Y-124281429D01*
X104719999Y-123638571D02*
X103862856Y-124495714D01*
X105362856Y-124352857D02*
X105862856Y-124352857D01*
X106077142Y-125138571D02*
X105362856Y-125138571D01*
X105362856Y-123638571D01*
X106077142Y-123638571D01*
X106934285Y-124281429D02*
X106791427Y-124210000D01*
X106719999Y-124138571D01*
X106648570Y-123995714D01*
X106648570Y-123924286D01*
X106719999Y-123781429D01*
X106791427Y-123710000D01*
X106934285Y-123638571D01*
X107219999Y-123638571D01*
X107362856Y-123710000D01*
X107434285Y-123781429D01*
X107505713Y-123924286D01*
X107505713Y-123995714D01*
X107434285Y-124138571D01*
X107362856Y-124210000D01*
X107219999Y-124281429D01*
X106934285Y-124281429D01*
X106791427Y-124352857D01*
X106719999Y-124424286D01*
X106648570Y-124567143D01*
X106648570Y-124852857D01*
X106719999Y-124995714D01*
X106791427Y-125067143D01*
X106934285Y-125138571D01*
X107219999Y-125138571D01*
X107362856Y-125067143D01*
X107434285Y-124995714D01*
X107505713Y-124852857D01*
X107505713Y-124567143D01*
X107434285Y-124424286D01*
X107362856Y-124352857D01*
X107219999Y-124281429D01*
X108648570Y-124352857D02*
X108148570Y-124352857D01*
X108148570Y-125138571D02*
X108148570Y-123638571D01*
X108862856Y-123638571D01*
X110148570Y-125138571D02*
X109434284Y-125138571D01*
X109434284Y-123638571D01*
X110505713Y-123638571D02*
X111505713Y-123638571D01*
X110505713Y-125138571D01*
X111505713Y-125138571D01*
X113148569Y-124710000D02*
X113862855Y-124710000D01*
X113005712Y-125138571D02*
X113505712Y-123638571D01*
X114005712Y-125138571D01*
X114505712Y-125138571D02*
X114505712Y-123638571D01*
X115362855Y-125138571D01*
X115362855Y-123638571D01*
X116077141Y-125138571D02*
X116077141Y-123638571D01*
X116434284Y-123638571D01*
X116648569Y-123710000D01*
X116791427Y-123852857D01*
X116862855Y-123995714D01*
X116934284Y-124281429D01*
X116934284Y-124495714D01*
X116862855Y-124781429D01*
X116791427Y-124924286D01*
X116648569Y-125067143D01*
X116434284Y-125138571D01*
X116077141Y-125138571D01*
X117577141Y-124352857D02*
X118077141Y-124352857D01*
X118291427Y-125138571D02*
X117577141Y-125138571D01*
X117577141Y-123638571D01*
X118291427Y-123638571D01*
X119791427Y-125138571D02*
X119291427Y-124424286D01*
X118934284Y-125138571D02*
X118934284Y-123638571D01*
X119505712Y-123638571D01*
X119648570Y-123710000D01*
X119719998Y-123781429D01*
X119791427Y-123924286D01*
X119791427Y-124138571D01*
X119719998Y-124281429D01*
X119648570Y-124352857D01*
X119505712Y-124424286D01*
X118934284Y-124424286D01*
X120362855Y-125067143D02*
X120577141Y-125138571D01*
X120934284Y-125138571D01*
X121077141Y-125067143D01*
X121148570Y-124995714D01*
X121219998Y-124852857D01*
X121219998Y-124710000D01*
X121148570Y-124567143D01*
X121077141Y-124495714D01*
X120934284Y-124424286D01*
X120648570Y-124352857D01*
X120505712Y-124281429D01*
X120434284Y-124210000D01*
X120362855Y-124067143D01*
X120362855Y-123924286D01*
X120434284Y-123781429D01*
X120505712Y-123710000D01*
X120648570Y-123638571D01*
X121005712Y-123638571D01*
X121219998Y-123710000D01*
X122148569Y-123638571D02*
X122434283Y-123638571D01*
X122577141Y-123710000D01*
X122719998Y-123852857D01*
X122791426Y-124138571D01*
X122791426Y-124638571D01*
X122719998Y-124924286D01*
X122577141Y-125067143D01*
X122434283Y-125138571D01*
X122148569Y-125138571D01*
X122005712Y-125067143D01*
X121862855Y-124924286D01*
X121791426Y-124638571D01*
X121791426Y-124138571D01*
X121862855Y-123852857D01*
X122005712Y-123710000D01*
X122148569Y-123638571D01*
X123434284Y-125138571D02*
X123434284Y-123638571D01*
X124291427Y-125138571D01*
X124291427Y-123638571D01*
X126148570Y-125138571D02*
X126148570Y-123638571D01*
X126719998Y-123638571D01*
X126862856Y-123710000D01*
X126934284Y-123781429D01*
X127005713Y-123924286D01*
X127005713Y-124138571D01*
X126934284Y-124281429D01*
X126862856Y-124352857D01*
X126719998Y-124424286D01*
X126148570Y-124424286D01*
X127934284Y-123638571D02*
X128219998Y-123638571D01*
X128362856Y-123710000D01*
X128505713Y-123852857D01*
X128577141Y-124138571D01*
X128577141Y-124638571D01*
X128505713Y-124924286D01*
X128362856Y-125067143D01*
X128219998Y-125138571D01*
X127934284Y-125138571D01*
X127791427Y-125067143D01*
X127648570Y-124924286D01*
X127577141Y-124638571D01*
X127577141Y-124138571D01*
X127648570Y-123852857D01*
X127791427Y-123710000D01*
X127934284Y-123638571D01*
X129077142Y-123638571D02*
X129434285Y-125138571D01*
X129719999Y-124067143D01*
X130005713Y-125138571D01*
X130362856Y-123638571D01*
X130934285Y-124352857D02*
X131434285Y-124352857D01*
X131648571Y-125138571D02*
X130934285Y-125138571D01*
X130934285Y-123638571D01*
X131648571Y-123638571D01*
X133148571Y-125138571D02*
X132648571Y-124424286D01*
X132291428Y-125138571D02*
X132291428Y-123638571D01*
X132862856Y-123638571D01*
X133005714Y-123710000D01*
X133077142Y-123781429D01*
X133148571Y-123924286D01*
X133148571Y-124138571D01*
X133077142Y-124281429D01*
X133005714Y-124352857D01*
X132862856Y-124424286D01*
X132291428Y-124424286D01*
X133791428Y-125138571D02*
X133791428Y-123638571D01*
X134362856Y-123638571D01*
X134505714Y-123710000D01*
X134577142Y-123781429D01*
X134648571Y-123924286D01*
X134648571Y-124138571D01*
X134577142Y-124281429D01*
X134505714Y-124352857D01*
X134362856Y-124424286D01*
X133791428Y-124424286D01*
X135577142Y-123638571D02*
X135862856Y-123638571D01*
X136005714Y-123710000D01*
X136148571Y-123852857D01*
X136219999Y-124138571D01*
X136219999Y-124638571D01*
X136148571Y-124924286D01*
X136005714Y-125067143D01*
X135862856Y-125138571D01*
X135577142Y-125138571D01*
X135434285Y-125067143D01*
X135291428Y-124924286D01*
X135219999Y-124638571D01*
X135219999Y-124138571D01*
X135291428Y-123852857D01*
X135434285Y-123710000D01*
X135577142Y-123638571D01*
X137577143Y-125138571D02*
X136862857Y-125138571D01*
X136862857Y-123638571D01*
X138077143Y-124352857D02*
X138577143Y-124352857D01*
X138791429Y-125138571D02*
X138077143Y-125138571D01*
X138077143Y-123638571D01*
X138791429Y-123638571D01*
X140577143Y-125138571D02*
X140577143Y-123638571D01*
X141148571Y-123638571D01*
X141291429Y-123710000D01*
X141362857Y-123781429D01*
X141434286Y-123924286D01*
X141434286Y-124138571D01*
X141362857Y-124281429D01*
X141291429Y-124352857D01*
X141148571Y-124424286D01*
X140577143Y-124424286D01*
X142362857Y-123638571D02*
X142648571Y-123638571D01*
X142791429Y-123710000D01*
X142934286Y-123852857D01*
X143005714Y-124138571D01*
X143005714Y-124638571D01*
X142934286Y-124924286D01*
X142791429Y-125067143D01*
X142648571Y-125138571D01*
X142362857Y-125138571D01*
X142220000Y-125067143D01*
X142077143Y-124924286D01*
X142005714Y-124638571D01*
X142005714Y-124138571D01*
X142077143Y-123852857D01*
X142220000Y-123710000D01*
X142362857Y-123638571D01*
X143505715Y-123638571D02*
X143862858Y-125138571D01*
X144148572Y-124067143D01*
X144434286Y-125138571D01*
X144791429Y-123638571D01*
X145362858Y-124352857D02*
X145862858Y-124352857D01*
X146077144Y-125138571D02*
X145362858Y-125138571D01*
X145362858Y-123638571D01*
X146077144Y-123638571D01*
X147577144Y-125138571D02*
X147077144Y-124424286D01*
X146720001Y-125138571D02*
X146720001Y-123638571D01*
X147291429Y-123638571D01*
X147434287Y-123710000D01*
X147505715Y-123781429D01*
X147577144Y-123924286D01*
X147577144Y-124138571D01*
X147505715Y-124281429D01*
X147434287Y-124352857D01*
X147291429Y-124424286D01*
X146720001Y-124424286D01*
X149362858Y-125138571D02*
X149362858Y-123638571D01*
X149720001Y-123638571D01*
X149934286Y-123710000D01*
X150077144Y-123852857D01*
X150148572Y-123995714D01*
X150220001Y-124281429D01*
X150220001Y-124495714D01*
X150148572Y-124781429D01*
X150077144Y-124924286D01*
X149934286Y-125067143D01*
X149720001Y-125138571D01*
X149362858Y-125138571D01*
X150862858Y-125138571D02*
X150862858Y-123638571D01*
X151505715Y-125067143D02*
X151720001Y-125138571D01*
X152077144Y-125138571D01*
X152220001Y-125067143D01*
X152291430Y-124995714D01*
X152362858Y-124852857D01*
X152362858Y-124710000D01*
X152291430Y-124567143D01*
X152220001Y-124495714D01*
X152077144Y-124424286D01*
X151791430Y-124352857D01*
X151648572Y-124281429D01*
X151577144Y-124210000D01*
X151505715Y-124067143D01*
X151505715Y-123924286D01*
X151577144Y-123781429D01*
X151648572Y-123710000D01*
X151791430Y-123638571D01*
X152148572Y-123638571D01*
X152362858Y-123710000D01*
X152791429Y-123638571D02*
X153648572Y-123638571D01*
X153220001Y-125138571D02*
X153220001Y-123638571D01*
X155005715Y-125138571D02*
X154505715Y-124424286D01*
X154148572Y-125138571D02*
X154148572Y-123638571D01*
X154720000Y-123638571D01*
X154862858Y-123710000D01*
X154934286Y-123781429D01*
X155005715Y-123924286D01*
X155005715Y-124138571D01*
X154934286Y-124281429D01*
X154862858Y-124352857D01*
X154720000Y-124424286D01*
X154148572Y-124424286D01*
X155648572Y-125138571D02*
X155648572Y-123638571D01*
X156862858Y-124352857D02*
X157077144Y-124424286D01*
X157148572Y-124495714D01*
X157220001Y-124638571D01*
X157220001Y-124852857D01*
X157148572Y-124995714D01*
X157077144Y-125067143D01*
X156934286Y-125138571D01*
X156362858Y-125138571D01*
X156362858Y-123638571D01*
X156862858Y-123638571D01*
X157005715Y-123710000D01*
X157077144Y-123781429D01*
X157148572Y-123924286D01*
X157148572Y-124067143D01*
X157077144Y-124210000D01*
X157005715Y-124281429D01*
X156862858Y-124352857D01*
X156362858Y-124352857D01*
X157862858Y-123638571D02*
X157862858Y-124852857D01*
X157934286Y-124995714D01*
X158005715Y-125067143D01*
X158148572Y-125138571D01*
X158434286Y-125138571D01*
X158577144Y-125067143D01*
X158648572Y-124995714D01*
X158720001Y-124852857D01*
X158720001Y-123638571D01*
X159220001Y-123638571D02*
X160077144Y-123638571D01*
X159648573Y-125138571D02*
X159648573Y-123638571D01*
X160577144Y-125138571D02*
X160577144Y-123638571D01*
X161577144Y-123638571D02*
X161862858Y-123638571D01*
X162005716Y-123710000D01*
X162148573Y-123852857D01*
X162220001Y-124138571D01*
X162220001Y-124638571D01*
X162148573Y-124924286D01*
X162005716Y-125067143D01*
X161862858Y-125138571D01*
X161577144Y-125138571D01*
X161434287Y-125067143D01*
X161291430Y-124924286D01*
X161220001Y-124638571D01*
X161220001Y-124138571D01*
X161291430Y-123852857D01*
X161434287Y-123710000D01*
X161577144Y-123638571D01*
X162862859Y-125138571D02*
X162862859Y-123638571D01*
X163720002Y-125138571D01*
X163720002Y-123638571D01*
X166077145Y-124352857D02*
X166291431Y-124424286D01*
X166362859Y-124495714D01*
X166434288Y-124638571D01*
X166434288Y-124852857D01*
X166362859Y-124995714D01*
X166291431Y-125067143D01*
X166148573Y-125138571D01*
X165577145Y-125138571D01*
X165577145Y-123638571D01*
X166077145Y-123638571D01*
X166220002Y-123710000D01*
X166291431Y-123781429D01*
X166362859Y-123924286D01*
X166362859Y-124067143D01*
X166291431Y-124210000D01*
X166220002Y-124281429D01*
X166077145Y-124352857D01*
X165577145Y-124352857D01*
X167362859Y-123638571D02*
X167648573Y-123638571D01*
X167791431Y-123710000D01*
X167934288Y-123852857D01*
X168005716Y-124138571D01*
X168005716Y-124638571D01*
X167934288Y-124924286D01*
X167791431Y-125067143D01*
X167648573Y-125138571D01*
X167362859Y-125138571D01*
X167220002Y-125067143D01*
X167077145Y-124924286D01*
X167005716Y-124638571D01*
X167005716Y-124138571D01*
X167077145Y-123852857D01*
X167220002Y-123710000D01*
X167362859Y-123638571D01*
X168577145Y-124710000D02*
X169291431Y-124710000D01*
X168434288Y-125138571D02*
X168934288Y-123638571D01*
X169434288Y-125138571D01*
X170791431Y-125138571D02*
X170291431Y-124424286D01*
X169934288Y-125138571D02*
X169934288Y-123638571D01*
X170505716Y-123638571D01*
X170648574Y-123710000D01*
X170720002Y-123781429D01*
X170791431Y-123924286D01*
X170791431Y-124138571D01*
X170720002Y-124281429D01*
X170648574Y-124352857D01*
X170505716Y-124424286D01*
X169934288Y-124424286D01*
X171434288Y-125138571D02*
X171434288Y-123638571D01*
X171791431Y-123638571D01*
X172005716Y-123710000D01*
X172148574Y-123852857D01*
X172220002Y-123995714D01*
X172291431Y-124281429D01*
X172291431Y-124495714D01*
X172220002Y-124781429D01*
X172148574Y-124924286D01*
X172005716Y-125067143D01*
X171791431Y-125138571D01*
X171434288Y-125138571D01*
X173934288Y-124138571D02*
X174291431Y-125138571D01*
X174648573Y-124138571D01*
X176005716Y-125138571D02*
X175148573Y-125138571D01*
X175577145Y-125138571D02*
X175577145Y-123638571D01*
X175434288Y-123852857D01*
X175291430Y-123995714D01*
X175148573Y-124067143D01*
X176648573Y-124995714D02*
X176720001Y-125067143D01*
X176648573Y-125138571D01*
X176577144Y-125067143D01*
X176648573Y-124995714D01*
X176648573Y-125138571D01*
X177648573Y-123638571D02*
X177791430Y-123638571D01*
X177934287Y-123710000D01*
X178005716Y-123781429D01*
X178077145Y-123924286D01*
X178148573Y-124210000D01*
X178148573Y-124567143D01*
X178077145Y-124852857D01*
X178005716Y-124995714D01*
X177934287Y-125067143D01*
X177791430Y-125138571D01*
X177648573Y-125138571D01*
X177505716Y-125067143D01*
X177434287Y-124995714D01*
X177362859Y-124852857D01*
X177291430Y-124567143D01*
X177291430Y-124210000D01*
X177362859Y-123924286D01*
X177434287Y-123781429D01*
X177505716Y-123710000D01*
X177648573Y-123638571D01*
D12*
X181379762Y-102218572D02*
X181427381Y-102075715D01*
X181427381Y-101837619D01*
X181379762Y-101742381D01*
X181332143Y-101694762D01*
X181236905Y-101647143D01*
X181141667Y-101647143D01*
X181046429Y-101694762D01*
X180998810Y-101742381D01*
X180951190Y-101837619D01*
X180903571Y-102028096D01*
X180855952Y-102123334D01*
X180808333Y-102170953D01*
X180713095Y-102218572D01*
X180617857Y-102218572D01*
X180522619Y-102170953D01*
X180475000Y-102123334D01*
X180427381Y-102028096D01*
X180427381Y-101790000D01*
X180475000Y-101647143D01*
X181427381Y-101218572D02*
X180427381Y-101218572D01*
X180427381Y-100837619D01*
X180475000Y-100742381D01*
X180522619Y-100694762D01*
X180617857Y-100647143D01*
X180760714Y-100647143D01*
X180855952Y-100694762D01*
X180903571Y-100742381D01*
X180951190Y-100837619D01*
X180951190Y-101218572D01*
X181141667Y-100266191D02*
X181141667Y-99790000D01*
X181427381Y-100361429D02*
X180427381Y-100028096D01*
X181427381Y-99694762D01*
X181427381Y-98790000D02*
X180951190Y-99123334D01*
X181427381Y-99361429D02*
X180427381Y-99361429D01*
X180427381Y-98980476D01*
X180475000Y-98885238D01*
X180522619Y-98837619D01*
X180617857Y-98790000D01*
X180760714Y-98790000D01*
X180855952Y-98837619D01*
X180903571Y-98885238D01*
X180951190Y-98980476D01*
X180951190Y-99361429D01*
X180903571Y-98361429D02*
X180903571Y-98028095D01*
X181427381Y-97885238D02*
X181427381Y-98361429D01*
X180427381Y-98361429D01*
X180427381Y-97885238D01*
X180903571Y-96361428D02*
X180903571Y-96694762D01*
X181427381Y-96694762D02*
X180427381Y-96694762D01*
X180427381Y-96218571D01*
X180427381Y-95837619D02*
X181236905Y-95837619D01*
X181332143Y-95790000D01*
X181379762Y-95742381D01*
X181427381Y-95647143D01*
X181427381Y-95456666D01*
X181379762Y-95361428D01*
X181332143Y-95313809D01*
X181236905Y-95266190D01*
X180427381Y-95266190D01*
X181379762Y-94837619D02*
X181427381Y-94694762D01*
X181427381Y-94456666D01*
X181379762Y-94361428D01*
X181332143Y-94313809D01*
X181236905Y-94266190D01*
X181141667Y-94266190D01*
X181046429Y-94313809D01*
X180998810Y-94361428D01*
X180951190Y-94456666D01*
X180903571Y-94647143D01*
X180855952Y-94742381D01*
X180808333Y-94790000D01*
X180713095Y-94837619D01*
X180617857Y-94837619D01*
X180522619Y-94790000D01*
X180475000Y-94742381D01*
X180427381Y-94647143D01*
X180427381Y-94409047D01*
X180475000Y-94266190D01*
X180903571Y-93837619D02*
X180903571Y-93504285D01*
X181427381Y-93361428D02*
X181427381Y-93837619D01*
X180427381Y-93837619D01*
X180427381Y-93361428D01*
D10*
X91440000Y-77470000D02*
X97790000Y-77470000D01*
X97790000Y-127000000D02*
X91440000Y-127000000D01*
X184150000Y-127000000D02*
X190500000Y-127000000D01*
X184150000Y-77470000D02*
X190500000Y-77470000D01*
X91440000Y-127000000D02*
X91440000Y-77470000D01*
X184150000Y-127000000D02*
X97790000Y-127000000D01*
X190500000Y-77470000D02*
X190500000Y-127000000D01*
X97790000Y-77470000D02*
X184150000Y-77470000D01*
D13*
X110045000Y-101855000D02*
X103315000Y-101855000D01*
X103315000Y-101855000D02*
X103315000Y-121665000D01*
X103315000Y-121665000D02*
X110045000Y-121665000D01*
X110045000Y-121665000D02*
X110045000Y-101855000D01*
X121475000Y-101855000D02*
X114745000Y-101855000D01*
X114745000Y-101855000D02*
X114745000Y-121665000D01*
X114745000Y-121665000D02*
X121475000Y-121665000D01*
X121475000Y-121665000D02*
X121475000Y-101855000D01*
X132905000Y-101855000D02*
X126175000Y-101855000D01*
X126175000Y-101855000D02*
X126175000Y-121665000D01*
X126175000Y-121665000D02*
X132905000Y-121665000D01*
X132905000Y-121665000D02*
X132905000Y-101855000D01*
X144335000Y-101855000D02*
X137605000Y-101855000D01*
X137605000Y-101855000D02*
X137605000Y-121665000D01*
X137605000Y-121665000D02*
X144335000Y-121665000D01*
X144335000Y-121665000D02*
X144335000Y-101855000D01*
X155765000Y-101855000D02*
X149035000Y-101855000D01*
X149035000Y-101855000D02*
X149035000Y-121665000D01*
X149035000Y-121665000D02*
X155765000Y-121665000D01*
X155765000Y-121665000D02*
X155765000Y-101855000D01*
X167195000Y-101855000D02*
X160465000Y-101855000D01*
X160465000Y-101855000D02*
X160465000Y-121665000D01*
X160465000Y-121665000D02*
X167195000Y-121665000D01*
X167195000Y-121665000D02*
X167195000Y-101855000D01*
X178625000Y-101855000D02*
X171895000Y-101855000D01*
X171895000Y-101855000D02*
X171895000Y-121665000D01*
X171895000Y-121665000D02*
X178625000Y-121665000D01*
X178625000Y-121665000D02*
X178625000Y-101855000D01*
D14*
X102616000Y-98298000D02*
X110744000Y-98298000D01*
X110744000Y-98298000D02*
X110744000Y-82042000D01*
X110744000Y-82042000D02*
X102616000Y-82042000D01*
X102616000Y-82042000D02*
X102616000Y-98298000D01*
X114046000Y-98298000D02*
X122174000Y-98298000D01*
X122174000Y-98298000D02*
X122174000Y-82042000D01*
X122174000Y-82042000D02*
X114046000Y-82042000D01*
X114046000Y-82042000D02*
X114046000Y-98298000D01*
X125476000Y-98298000D02*
X133604000Y-98298000D01*
X133604000Y-98298000D02*
X133604000Y-82042000D01*
X133604000Y-82042000D02*
X125476000Y-82042000D01*
X125476000Y-82042000D02*
X125476000Y-98298000D01*
X136906000Y-98298000D02*
X145034000Y-98298000D01*
X145034000Y-98298000D02*
X145034000Y-82042000D01*
X145034000Y-82042000D02*
X136906000Y-82042000D01*
X136906000Y-82042000D02*
X136906000Y-98298000D01*
X148336000Y-98298000D02*
X156464000Y-98298000D01*
X156464000Y-98298000D02*
X156464000Y-82042000D01*
X156464000Y-82042000D02*
X148336000Y-82042000D01*
X148336000Y-82042000D02*
X148336000Y-98298000D01*
X159766000Y-98298000D02*
X167894000Y-98298000D01*
X167894000Y-98298000D02*
X167894000Y-82042000D01*
X167894000Y-82042000D02*
X159766000Y-82042000D01*
X159766000Y-82042000D02*
X159766000Y-98298000D01*
X171196000Y-98298000D02*
X179324000Y-98298000D01*
X179324000Y-98298000D02*
X179324000Y-82042000D01*
X179324000Y-82042000D02*
X171196000Y-82042000D01*
X171196000Y-82042000D02*
X171196000Y-98298000D01*
D13*
X182055000Y-112140000D02*
X188785000Y-112140000D01*
X188785000Y-112140000D02*
X188785000Y-92330000D01*
X188785000Y-92330000D02*
X182055000Y-92330000D01*
X182055000Y-92330000D02*
X182055000Y-112140000D01*
D12*
X110743571Y-104853333D02*
X110743571Y-105186667D01*
X111267381Y-105186667D02*
X110267381Y-105186667D01*
X110267381Y-104710476D01*
X111267381Y-103805714D02*
X111267381Y-104377143D01*
X111267381Y-104091429D02*
X110267381Y-104091429D01*
X110410238Y-104186667D01*
X110505476Y-104281905D01*
X110553095Y-104377143D01*
X101837381Y-108052143D02*
X101837381Y-107433095D01*
X102218333Y-107766429D01*
X102218333Y-107623571D01*
X102265952Y-107528333D01*
X102313571Y-107480714D01*
X102408810Y-107433095D01*
X102646905Y-107433095D01*
X102742143Y-107480714D01*
X102789762Y-107528333D01*
X102837381Y-107623571D01*
X102837381Y-107909286D01*
X102789762Y-108004524D01*
X102742143Y-108052143D01*
X101837381Y-106528333D02*
X101837381Y-107004524D01*
X102313571Y-107052143D01*
X102265952Y-107004524D01*
X102218333Y-106909286D01*
X102218333Y-106671190D01*
X102265952Y-106575952D01*
X102313571Y-106528333D01*
X102408810Y-106480714D01*
X102646905Y-106480714D01*
X102742143Y-106528333D01*
X102789762Y-106575952D01*
X102837381Y-106671190D01*
X102837381Y-106909286D01*
X102789762Y-107004524D01*
X102742143Y-107052143D01*
X101837381Y-105575952D02*
X101837381Y-106052143D01*
X102313571Y-106099762D01*
X102265952Y-106052143D01*
X102218333Y-105956905D01*
X102218333Y-105718809D01*
X102265952Y-105623571D01*
X102313571Y-105575952D01*
X102408810Y-105528333D01*
X102646905Y-105528333D01*
X102742143Y-105575952D01*
X102789762Y-105623571D01*
X102837381Y-105718809D01*
X102837381Y-105956905D01*
X102789762Y-106052143D01*
X102742143Y-106099762D01*
X101837381Y-105195000D02*
X101837381Y-104528333D01*
X102837381Y-104956905D01*
X102456429Y-104147381D02*
X102456429Y-103385476D01*
X101932619Y-102956905D02*
X101885000Y-102909286D01*
X101837381Y-102814048D01*
X101837381Y-102575952D01*
X101885000Y-102480714D01*
X101932619Y-102433095D01*
X102027857Y-102385476D01*
X102123095Y-102385476D01*
X102265952Y-102433095D01*
X102837381Y-103004524D01*
X102837381Y-102385476D01*
X122173571Y-104853333D02*
X122173571Y-105186667D01*
X122697381Y-105186667D02*
X121697381Y-105186667D01*
X121697381Y-104710476D01*
X121792619Y-104377143D02*
X121745000Y-104329524D01*
X121697381Y-104234286D01*
X121697381Y-103996190D01*
X121745000Y-103900952D01*
X121792619Y-103853333D01*
X121887857Y-103805714D01*
X121983095Y-103805714D01*
X122125952Y-103853333D01*
X122697381Y-104424762D01*
X122697381Y-103805714D01*
X113267381Y-108052143D02*
X113267381Y-107433095D01*
X113648333Y-107766429D01*
X113648333Y-107623571D01*
X113695952Y-107528333D01*
X113743571Y-107480714D01*
X113838810Y-107433095D01*
X114076905Y-107433095D01*
X114172143Y-107480714D01*
X114219762Y-107528333D01*
X114267381Y-107623571D01*
X114267381Y-107909286D01*
X114219762Y-108004524D01*
X114172143Y-108052143D01*
X113267381Y-106528333D02*
X113267381Y-107004524D01*
X113743571Y-107052143D01*
X113695952Y-107004524D01*
X113648333Y-106909286D01*
X113648333Y-106671190D01*
X113695952Y-106575952D01*
X113743571Y-106528333D01*
X113838810Y-106480714D01*
X114076905Y-106480714D01*
X114172143Y-106528333D01*
X114219762Y-106575952D01*
X114267381Y-106671190D01*
X114267381Y-106909286D01*
X114219762Y-107004524D01*
X114172143Y-107052143D01*
X113267381Y-105575952D02*
X113267381Y-106052143D01*
X113743571Y-106099762D01*
X113695952Y-106052143D01*
X113648333Y-105956905D01*
X113648333Y-105718809D01*
X113695952Y-105623571D01*
X113743571Y-105575952D01*
X113838810Y-105528333D01*
X114076905Y-105528333D01*
X114172143Y-105575952D01*
X114219762Y-105623571D01*
X114267381Y-105718809D01*
X114267381Y-105956905D01*
X114219762Y-106052143D01*
X114172143Y-106099762D01*
X113267381Y-105195000D02*
X113267381Y-104528333D01*
X114267381Y-104956905D01*
X113886429Y-104147381D02*
X113886429Y-103385476D01*
X113362619Y-102956905D02*
X113315000Y-102909286D01*
X113267381Y-102814048D01*
X113267381Y-102575952D01*
X113315000Y-102480714D01*
X113362619Y-102433095D01*
X113457857Y-102385476D01*
X113553095Y-102385476D01*
X113695952Y-102433095D01*
X114267381Y-103004524D01*
X114267381Y-102385476D01*
X133603571Y-104853333D02*
X133603571Y-105186667D01*
X134127381Y-105186667D02*
X133127381Y-105186667D01*
X133127381Y-104710476D01*
X133127381Y-104424762D02*
X133127381Y-103805714D01*
X133508333Y-104139048D01*
X133508333Y-103996190D01*
X133555952Y-103900952D01*
X133603571Y-103853333D01*
X133698810Y-103805714D01*
X133936905Y-103805714D01*
X134032143Y-103853333D01*
X134079762Y-103900952D01*
X134127381Y-103996190D01*
X134127381Y-104281905D01*
X134079762Y-104377143D01*
X134032143Y-104424762D01*
X124697381Y-108052143D02*
X124697381Y-107433095D01*
X125078333Y-107766429D01*
X125078333Y-107623571D01*
X125125952Y-107528333D01*
X125173571Y-107480714D01*
X125268810Y-107433095D01*
X125506905Y-107433095D01*
X125602143Y-107480714D01*
X125649762Y-107528333D01*
X125697381Y-107623571D01*
X125697381Y-107909286D01*
X125649762Y-108004524D01*
X125602143Y-108052143D01*
X124697381Y-106528333D02*
X124697381Y-107004524D01*
X125173571Y-107052143D01*
X125125952Y-107004524D01*
X125078333Y-106909286D01*
X125078333Y-106671190D01*
X125125952Y-106575952D01*
X125173571Y-106528333D01*
X125268810Y-106480714D01*
X125506905Y-106480714D01*
X125602143Y-106528333D01*
X125649762Y-106575952D01*
X125697381Y-106671190D01*
X125697381Y-106909286D01*
X125649762Y-107004524D01*
X125602143Y-107052143D01*
X124697381Y-105575952D02*
X124697381Y-106052143D01*
X125173571Y-106099762D01*
X125125952Y-106052143D01*
X125078333Y-105956905D01*
X125078333Y-105718809D01*
X125125952Y-105623571D01*
X125173571Y-105575952D01*
X125268810Y-105528333D01*
X125506905Y-105528333D01*
X125602143Y-105575952D01*
X125649762Y-105623571D01*
X125697381Y-105718809D01*
X125697381Y-105956905D01*
X125649762Y-106052143D01*
X125602143Y-106099762D01*
X124697381Y-105195000D02*
X124697381Y-104528333D01*
X125697381Y-104956905D01*
X125316429Y-104147381D02*
X125316429Y-103385476D01*
X124792619Y-102956905D02*
X124745000Y-102909286D01*
X124697381Y-102814048D01*
X124697381Y-102575952D01*
X124745000Y-102480714D01*
X124792619Y-102433095D01*
X124887857Y-102385476D01*
X124983095Y-102385476D01*
X125125952Y-102433095D01*
X125697381Y-103004524D01*
X125697381Y-102385476D01*
X145033571Y-104853333D02*
X145033571Y-105186667D01*
X145557381Y-105186667D02*
X144557381Y-105186667D01*
X144557381Y-104710476D01*
X144890714Y-103900952D02*
X145557381Y-103900952D01*
X144509762Y-104139048D02*
X145224048Y-104377143D01*
X145224048Y-103758095D01*
X136127381Y-108052143D02*
X136127381Y-107433095D01*
X136508333Y-107766429D01*
X136508333Y-107623571D01*
X136555952Y-107528333D01*
X136603571Y-107480714D01*
X136698810Y-107433095D01*
X136936905Y-107433095D01*
X137032143Y-107480714D01*
X137079762Y-107528333D01*
X137127381Y-107623571D01*
X137127381Y-107909286D01*
X137079762Y-108004524D01*
X137032143Y-108052143D01*
X136127381Y-106528333D02*
X136127381Y-107004524D01*
X136603571Y-107052143D01*
X136555952Y-107004524D01*
X136508333Y-106909286D01*
X136508333Y-106671190D01*
X136555952Y-106575952D01*
X136603571Y-106528333D01*
X136698810Y-106480714D01*
X136936905Y-106480714D01*
X137032143Y-106528333D01*
X137079762Y-106575952D01*
X137127381Y-106671190D01*
X137127381Y-106909286D01*
X137079762Y-107004524D01*
X137032143Y-107052143D01*
X136127381Y-105575952D02*
X136127381Y-106052143D01*
X136603571Y-106099762D01*
X136555952Y-106052143D01*
X136508333Y-105956905D01*
X136508333Y-105718809D01*
X136555952Y-105623571D01*
X136603571Y-105575952D01*
X136698810Y-105528333D01*
X136936905Y-105528333D01*
X137032143Y-105575952D01*
X137079762Y-105623571D01*
X137127381Y-105718809D01*
X137127381Y-105956905D01*
X137079762Y-106052143D01*
X137032143Y-106099762D01*
X136127381Y-105195000D02*
X136127381Y-104528333D01*
X137127381Y-104956905D01*
X136746429Y-104147381D02*
X136746429Y-103385476D01*
X136222619Y-102956905D02*
X136175000Y-102909286D01*
X136127381Y-102814048D01*
X136127381Y-102575952D01*
X136175000Y-102480714D01*
X136222619Y-102433095D01*
X136317857Y-102385476D01*
X136413095Y-102385476D01*
X136555952Y-102433095D01*
X137127381Y-103004524D01*
X137127381Y-102385476D01*
X156463571Y-104853333D02*
X156463571Y-105186667D01*
X156987381Y-105186667D02*
X155987381Y-105186667D01*
X155987381Y-104710476D01*
X155987381Y-103853333D02*
X155987381Y-104329524D01*
X156463571Y-104377143D01*
X156415952Y-104329524D01*
X156368333Y-104234286D01*
X156368333Y-103996190D01*
X156415952Y-103900952D01*
X156463571Y-103853333D01*
X156558810Y-103805714D01*
X156796905Y-103805714D01*
X156892143Y-103853333D01*
X156939762Y-103900952D01*
X156987381Y-103996190D01*
X156987381Y-104234286D01*
X156939762Y-104329524D01*
X156892143Y-104377143D01*
X147557381Y-108052143D02*
X147557381Y-107433095D01*
X147938333Y-107766429D01*
X147938333Y-107623571D01*
X147985952Y-107528333D01*
X148033571Y-107480714D01*
X148128810Y-107433095D01*
X148366905Y-107433095D01*
X148462143Y-107480714D01*
X148509762Y-107528333D01*
X148557381Y-107623571D01*
X148557381Y-107909286D01*
X148509762Y-108004524D01*
X148462143Y-108052143D01*
X147557381Y-106528333D02*
X147557381Y-107004524D01*
X148033571Y-107052143D01*
X147985952Y-107004524D01*
X147938333Y-106909286D01*
X147938333Y-106671190D01*
X147985952Y-106575952D01*
X148033571Y-106528333D01*
X148128810Y-106480714D01*
X148366905Y-106480714D01*
X148462143Y-106528333D01*
X148509762Y-106575952D01*
X148557381Y-106671190D01*
X148557381Y-106909286D01*
X148509762Y-107004524D01*
X148462143Y-107052143D01*
X147557381Y-105575952D02*
X147557381Y-106052143D01*
X148033571Y-106099762D01*
X147985952Y-106052143D01*
X147938333Y-105956905D01*
X147938333Y-105718809D01*
X147985952Y-105623571D01*
X148033571Y-105575952D01*
X148128810Y-105528333D01*
X148366905Y-105528333D01*
X148462143Y-105575952D01*
X148509762Y-105623571D01*
X148557381Y-105718809D01*
X148557381Y-105956905D01*
X148509762Y-106052143D01*
X148462143Y-106099762D01*
X147557381Y-105195000D02*
X147557381Y-104528333D01*
X148557381Y-104956905D01*
X148176429Y-104147381D02*
X148176429Y-103385476D01*
X147652619Y-102956905D02*
X147605000Y-102909286D01*
X147557381Y-102814048D01*
X147557381Y-102575952D01*
X147605000Y-102480714D01*
X147652619Y-102433095D01*
X147747857Y-102385476D01*
X147843095Y-102385476D01*
X147985952Y-102433095D01*
X148557381Y-103004524D01*
X148557381Y-102385476D01*
X167893571Y-104853333D02*
X167893571Y-105186667D01*
X168417381Y-105186667D02*
X167417381Y-105186667D01*
X167417381Y-104710476D01*
X167417381Y-103900952D02*
X167417381Y-104091429D01*
X167465000Y-104186667D01*
X167512619Y-104234286D01*
X167655476Y-104329524D01*
X167845952Y-104377143D01*
X168226905Y-104377143D01*
X168322143Y-104329524D01*
X168369762Y-104281905D01*
X168417381Y-104186667D01*
X168417381Y-103996190D01*
X168369762Y-103900952D01*
X168322143Y-103853333D01*
X168226905Y-103805714D01*
X167988810Y-103805714D01*
X167893571Y-103853333D01*
X167845952Y-103900952D01*
X167798333Y-103996190D01*
X167798333Y-104186667D01*
X167845952Y-104281905D01*
X167893571Y-104329524D01*
X167988810Y-104377143D01*
X158987381Y-108052143D02*
X158987381Y-107433095D01*
X159368333Y-107766429D01*
X159368333Y-107623571D01*
X159415952Y-107528333D01*
X159463571Y-107480714D01*
X159558810Y-107433095D01*
X159796905Y-107433095D01*
X159892143Y-107480714D01*
X159939762Y-107528333D01*
X159987381Y-107623571D01*
X159987381Y-107909286D01*
X159939762Y-108004524D01*
X159892143Y-108052143D01*
X158987381Y-106528333D02*
X158987381Y-107004524D01*
X159463571Y-107052143D01*
X159415952Y-107004524D01*
X159368333Y-106909286D01*
X159368333Y-106671190D01*
X159415952Y-106575952D01*
X159463571Y-106528333D01*
X159558810Y-106480714D01*
X159796905Y-106480714D01*
X159892143Y-106528333D01*
X159939762Y-106575952D01*
X159987381Y-106671190D01*
X159987381Y-106909286D01*
X159939762Y-107004524D01*
X159892143Y-107052143D01*
X158987381Y-105575952D02*
X158987381Y-106052143D01*
X159463571Y-106099762D01*
X159415952Y-106052143D01*
X159368333Y-105956905D01*
X159368333Y-105718809D01*
X159415952Y-105623571D01*
X159463571Y-105575952D01*
X159558810Y-105528333D01*
X159796905Y-105528333D01*
X159892143Y-105575952D01*
X159939762Y-105623571D01*
X159987381Y-105718809D01*
X159987381Y-105956905D01*
X159939762Y-106052143D01*
X159892143Y-106099762D01*
X158987381Y-105195000D02*
X158987381Y-104528333D01*
X159987381Y-104956905D01*
X159606429Y-104147381D02*
X159606429Y-103385476D01*
X159082619Y-102956905D02*
X159035000Y-102909286D01*
X158987381Y-102814048D01*
X158987381Y-102575952D01*
X159035000Y-102480714D01*
X159082619Y-102433095D01*
X159177857Y-102385476D01*
X159273095Y-102385476D01*
X159415952Y-102433095D01*
X159987381Y-103004524D01*
X159987381Y-102385476D01*
X179323571Y-104853333D02*
X179323571Y-105186667D01*
X179847381Y-105186667D02*
X178847381Y-105186667D01*
X178847381Y-104710476D01*
X178847381Y-104424762D02*
X178847381Y-103758095D01*
X179847381Y-104186667D01*
X170417381Y-108052143D02*
X170417381Y-107433095D01*
X170798333Y-107766429D01*
X170798333Y-107623571D01*
X170845952Y-107528333D01*
X170893571Y-107480714D01*
X170988810Y-107433095D01*
X171226905Y-107433095D01*
X171322143Y-107480714D01*
X171369762Y-107528333D01*
X171417381Y-107623571D01*
X171417381Y-107909286D01*
X171369762Y-108004524D01*
X171322143Y-108052143D01*
X170417381Y-106528333D02*
X170417381Y-107004524D01*
X170893571Y-107052143D01*
X170845952Y-107004524D01*
X170798333Y-106909286D01*
X170798333Y-106671190D01*
X170845952Y-106575952D01*
X170893571Y-106528333D01*
X170988810Y-106480714D01*
X171226905Y-106480714D01*
X171322143Y-106528333D01*
X171369762Y-106575952D01*
X171417381Y-106671190D01*
X171417381Y-106909286D01*
X171369762Y-107004524D01*
X171322143Y-107052143D01*
X170417381Y-105575952D02*
X170417381Y-106052143D01*
X170893571Y-106099762D01*
X170845952Y-106052143D01*
X170798333Y-105956905D01*
X170798333Y-105718809D01*
X170845952Y-105623571D01*
X170893571Y-105575952D01*
X170988810Y-105528333D01*
X171226905Y-105528333D01*
X171322143Y-105575952D01*
X171369762Y-105623571D01*
X171417381Y-105718809D01*
X171417381Y-105956905D01*
X171369762Y-106052143D01*
X171322143Y-106099762D01*
X170417381Y-105195000D02*
X170417381Y-104528333D01*
X171417381Y-104956905D01*
X171036429Y-104147381D02*
X171036429Y-103385476D01*
X170512619Y-102956905D02*
X170465000Y-102909286D01*
X170417381Y-102814048D01*
X170417381Y-102575952D01*
X170465000Y-102480714D01*
X170512619Y-102433095D01*
X170607857Y-102385476D01*
X170703095Y-102385476D01*
X170845952Y-102433095D01*
X171417381Y-103004524D01*
X171417381Y-102385476D01*
D14*
X111466381Y-90503333D02*
X112180667Y-90503333D01*
X112323524Y-90550953D01*
X112418762Y-90646191D01*
X112466381Y-90789048D01*
X112466381Y-90884286D01*
X112466381Y-89503333D02*
X112466381Y-90074762D01*
X112466381Y-89789048D02*
X111466381Y-89789048D01*
X111609238Y-89884286D01*
X111704476Y-89979524D01*
X111752095Y-90074762D01*
X122896381Y-90503333D02*
X123610667Y-90503333D01*
X123753524Y-90550953D01*
X123848762Y-90646191D01*
X123896381Y-90789048D01*
X123896381Y-90884286D01*
X122991619Y-90074762D02*
X122944000Y-90027143D01*
X122896381Y-89931905D01*
X122896381Y-89693809D01*
X122944000Y-89598571D01*
X122991619Y-89550952D01*
X123086857Y-89503333D01*
X123182095Y-89503333D01*
X123324952Y-89550952D01*
X123896381Y-90122381D01*
X123896381Y-89503333D01*
X134326381Y-90503333D02*
X135040667Y-90503333D01*
X135183524Y-90550953D01*
X135278762Y-90646191D01*
X135326381Y-90789048D01*
X135326381Y-90884286D01*
X134326381Y-90122381D02*
X134326381Y-89503333D01*
X134707333Y-89836667D01*
X134707333Y-89693809D01*
X134754952Y-89598571D01*
X134802571Y-89550952D01*
X134897810Y-89503333D01*
X135135905Y-89503333D01*
X135231143Y-89550952D01*
X135278762Y-89598571D01*
X135326381Y-89693809D01*
X135326381Y-89979524D01*
X135278762Y-90074762D01*
X135231143Y-90122381D01*
X145756381Y-90503333D02*
X146470667Y-90503333D01*
X146613524Y-90550953D01*
X146708762Y-90646191D01*
X146756381Y-90789048D01*
X146756381Y-90884286D01*
X146089714Y-89598571D02*
X146756381Y-89598571D01*
X145708762Y-89836667D02*
X146423048Y-90074762D01*
X146423048Y-89455714D01*
X157186381Y-90503333D02*
X157900667Y-90503333D01*
X158043524Y-90550953D01*
X158138762Y-90646191D01*
X158186381Y-90789048D01*
X158186381Y-90884286D01*
X157186381Y-89550952D02*
X157186381Y-90027143D01*
X157662571Y-90074762D01*
X157614952Y-90027143D01*
X157567333Y-89931905D01*
X157567333Y-89693809D01*
X157614952Y-89598571D01*
X157662571Y-89550952D01*
X157757810Y-89503333D01*
X157995905Y-89503333D01*
X158091143Y-89550952D01*
X158138762Y-89598571D01*
X158186381Y-89693809D01*
X158186381Y-89931905D01*
X158138762Y-90027143D01*
X158091143Y-90074762D01*
X168616381Y-90503333D02*
X169330667Y-90503333D01*
X169473524Y-90550953D01*
X169568762Y-90646191D01*
X169616381Y-90789048D01*
X169616381Y-90884286D01*
X168616381Y-89598571D02*
X168616381Y-89789048D01*
X168664000Y-89884286D01*
X168711619Y-89931905D01*
X168854476Y-90027143D01*
X169044952Y-90074762D01*
X169425905Y-90074762D01*
X169521143Y-90027143D01*
X169568762Y-89979524D01*
X169616381Y-89884286D01*
X169616381Y-89693809D01*
X169568762Y-89598571D01*
X169521143Y-89550952D01*
X169425905Y-89503333D01*
X169187810Y-89503333D01*
X169092571Y-89550952D01*
X169044952Y-89598571D01*
X168997333Y-89693809D01*
X168997333Y-89884286D01*
X169044952Y-89979524D01*
X169092571Y-90027143D01*
X169187810Y-90074762D01*
X180046381Y-90503333D02*
X180760667Y-90503333D01*
X180903524Y-90550953D01*
X180998762Y-90646191D01*
X181046381Y-90789048D01*
X181046381Y-90884286D01*
X180046381Y-90122381D02*
X180046381Y-89455714D01*
X181046381Y-89884286D01*
D12*
X180737381Y-112332143D02*
X180737381Y-111713095D01*
X181118333Y-112046429D01*
X181118333Y-111903571D01*
X181165952Y-111808333D01*
X181213571Y-111760714D01*
X181308810Y-111713095D01*
X181546905Y-111713095D01*
X181642143Y-111760714D01*
X181689762Y-111808333D01*
X181737381Y-111903571D01*
X181737381Y-112189286D01*
X181689762Y-112284524D01*
X181642143Y-112332143D01*
X180737381Y-110808333D02*
X180737381Y-111284524D01*
X181213571Y-111332143D01*
X181165952Y-111284524D01*
X181118333Y-111189286D01*
X181118333Y-110951190D01*
X181165952Y-110855952D01*
X181213571Y-110808333D01*
X181308810Y-110760714D01*
X181546905Y-110760714D01*
X181642143Y-110808333D01*
X181689762Y-110855952D01*
X181737381Y-110951190D01*
X181737381Y-111189286D01*
X181689762Y-111284524D01*
X181642143Y-111332143D01*
X180737381Y-109855952D02*
X180737381Y-110332143D01*
X181213571Y-110379762D01*
X181165952Y-110332143D01*
X181118333Y-110236905D01*
X181118333Y-109998809D01*
X181165952Y-109903571D01*
X181213571Y-109855952D01*
X181308810Y-109808333D01*
X181546905Y-109808333D01*
X181642143Y-109855952D01*
X181689762Y-109903571D01*
X181737381Y-109998809D01*
X181737381Y-110236905D01*
X181689762Y-110332143D01*
X181642143Y-110379762D01*
X180737381Y-109475000D02*
X180737381Y-108808333D01*
X181737381Y-109236905D01*
X181356429Y-108427381D02*
X181356429Y-107665476D01*
X180832619Y-107236905D02*
X180785000Y-107189286D01*
X180737381Y-107094048D01*
X180737381Y-106855952D01*
X180785000Y-106760714D01*
X180832619Y-106713095D01*
X180927857Y-106665476D01*
X181023095Y-106665476D01*
X181165952Y-106713095D01*
X181737381Y-107284524D01*
X181737381Y-106665476D01*
X189643571Y-109133333D02*
X189643571Y-109466667D01*
X190167381Y-109466667D02*
X189167381Y-109466667D01*
X189167381Y-108990476D01*
X189595952Y-108466667D02*
X189548333Y-108561905D01*
X189500714Y-108609524D01*
X189405476Y-108657143D01*
X189357857Y-108657143D01*
X189262619Y-108609524D01*
X189215000Y-108561905D01*
X189167381Y-108466667D01*
X189167381Y-108276190D01*
X189215000Y-108180952D01*
X189262619Y-108133333D01*
X189357857Y-108085714D01*
X189405476Y-108085714D01*
X189500714Y-108133333D01*
X189548333Y-108180952D01*
X189595952Y-108276190D01*
X189595952Y-108466667D01*
X189643571Y-108561905D01*
X189691190Y-108609524D01*
X189786429Y-108657143D01*
X189976905Y-108657143D01*
X190072143Y-108609524D01*
X190119762Y-108561905D01*
X190167381Y-108466667D01*
X190167381Y-108276190D01*
X190119762Y-108180952D01*
X190072143Y-108133333D01*
X189976905Y-108085714D01*
X189786429Y-108085714D01*
X189691190Y-108133333D01*
X189643571Y-108180952D01*
X189595952Y-108276190D01*
M02*
