G04 #@! TF.FileFunction,Copper,L2,Bot,Signal*
%FSLAX46Y46*%
G04 Gerber Fmt 4.6, Leading zero omitted, Abs format (unit mm)*
G04 Created by KiCad (PCBNEW 4.0.6) date 06/22/17 12:13:26*
%MOMM*%
%LPD*%
G01*
G04 APERTURE LIST*
%ADD10C,0.100000*%
%ADD11C,0.300000*%
%ADD12C,7.000000*%
%ADD13C,2.400000*%
%ADD14C,4.572000*%
%ADD15C,0.250000*%
%ADD16C,0.254000*%
G04 APERTURE END LIST*
D10*
D11*
X179994286Y-122447857D02*
X179780000Y-122519286D01*
X179708572Y-122590714D01*
X179637143Y-122733571D01*
X179637143Y-122947857D01*
X179708572Y-123090714D01*
X179780000Y-123162143D01*
X179922858Y-123233571D01*
X180494286Y-123233571D01*
X180494286Y-121733571D01*
X179994286Y-121733571D01*
X179851429Y-121805000D01*
X179780000Y-121876429D01*
X179708572Y-122019286D01*
X179708572Y-122162143D01*
X179780000Y-122305000D01*
X179851429Y-122376429D01*
X179994286Y-122447857D01*
X180494286Y-122447857D01*
X178708572Y-121733571D02*
X178422858Y-121733571D01*
X178280000Y-121805000D01*
X178137143Y-121947857D01*
X178065715Y-122233571D01*
X178065715Y-122733571D01*
X178137143Y-123019286D01*
X178280000Y-123162143D01*
X178422858Y-123233571D01*
X178708572Y-123233571D01*
X178851429Y-123162143D01*
X178994286Y-123019286D01*
X179065715Y-122733571D01*
X179065715Y-122233571D01*
X178994286Y-121947857D01*
X178851429Y-121805000D01*
X178708572Y-121733571D01*
X177637143Y-121733571D02*
X176780000Y-121733571D01*
X177208571Y-123233571D02*
X177208571Y-121733571D01*
X176494286Y-121733571D02*
X175637143Y-121733571D01*
X176065714Y-123233571D02*
X176065714Y-121733571D01*
X174851429Y-121733571D02*
X174565715Y-121733571D01*
X174422857Y-121805000D01*
X174280000Y-121947857D01*
X174208572Y-122233571D01*
X174208572Y-122733571D01*
X174280000Y-123019286D01*
X174422857Y-123162143D01*
X174565715Y-123233571D01*
X174851429Y-123233571D01*
X174994286Y-123162143D01*
X175137143Y-123019286D01*
X175208572Y-122733571D01*
X175208572Y-122233571D01*
X175137143Y-121947857D01*
X174994286Y-121805000D01*
X174851429Y-121733571D01*
X173565714Y-123233571D02*
X173565714Y-121733571D01*
X173065714Y-122805000D01*
X172565714Y-121733571D01*
X172565714Y-123233571D01*
D10*
X91440000Y-77470000D02*
X97790000Y-77470000D01*
X97790000Y-127000000D02*
X91440000Y-127000000D01*
X184150000Y-127000000D02*
X190500000Y-127000000D01*
X184150000Y-77470000D02*
X190500000Y-77470000D01*
X91440000Y-127000000D02*
X91440000Y-77470000D01*
X184150000Y-127000000D02*
X97790000Y-127000000D01*
X190500000Y-77470000D02*
X190500000Y-127000000D01*
X97790000Y-77470000D02*
X184150000Y-77470000D01*
D12*
X184785000Y-83820000D03*
X97790000Y-83820000D03*
X97790000Y-120650000D03*
D13*
X108380000Y-105025000D03*
X104980000Y-105025000D03*
X108380000Y-118495000D03*
X104980000Y-118495000D03*
X119810000Y-105025000D03*
X116410000Y-105025000D03*
X119810000Y-118495000D03*
X116410000Y-118495000D03*
X131240000Y-105025000D03*
X127840000Y-105025000D03*
X131240000Y-118495000D03*
X127840000Y-118495000D03*
X142670000Y-105025000D03*
X139270000Y-105025000D03*
X142670000Y-118495000D03*
X139270000Y-118495000D03*
X154100000Y-105025000D03*
X150700000Y-105025000D03*
X154100000Y-118495000D03*
X150700000Y-118495000D03*
X165530000Y-105025000D03*
X162130000Y-105025000D03*
X165530000Y-118495000D03*
X162130000Y-118495000D03*
X176960000Y-105025000D03*
X173560000Y-105025000D03*
X176960000Y-118495000D03*
X173560000Y-118495000D03*
D14*
X106680000Y-94107000D03*
X106680000Y-86233000D03*
X118110000Y-94107000D03*
X118110000Y-86233000D03*
X129540000Y-94107000D03*
X129540000Y-86233000D03*
X140970000Y-94107000D03*
X140970000Y-86233000D03*
X152400000Y-94107000D03*
X152400000Y-86233000D03*
X163830000Y-94107000D03*
X163830000Y-86233000D03*
X175260000Y-94107000D03*
X175260000Y-86233000D03*
D12*
X184785000Y-120650000D03*
D13*
X183720000Y-108970000D03*
X187120000Y-108970000D03*
X183720000Y-95500000D03*
X187120000Y-95500000D03*
D15*
X108380000Y-105025000D02*
X104980000Y-105025000D01*
X106680000Y-94107000D02*
X106680000Y-103325000D01*
X106680000Y-103325000D02*
X108380000Y-105025000D01*
X108380000Y-118495000D02*
X116410000Y-118495000D01*
X116410000Y-118495000D02*
X119810000Y-118495000D01*
X119810000Y-118495000D02*
X127840000Y-118495000D01*
X127840000Y-118495000D02*
X131240000Y-118495000D01*
X131240000Y-118495000D02*
X139270000Y-118495000D01*
X139270000Y-118495000D02*
X142670000Y-118495000D01*
X142670000Y-118495000D02*
X150700000Y-118495000D01*
X150700000Y-118495000D02*
X154100000Y-118495000D01*
X154100000Y-118495000D02*
X162130000Y-118495000D01*
X162130000Y-118495000D02*
X165530000Y-118495000D01*
X165530000Y-118495000D02*
X173560000Y-118495000D01*
X173560000Y-118495000D02*
X176960000Y-118495000D01*
X104980000Y-118495000D02*
X108380000Y-118495000D01*
X119810000Y-105025000D02*
X116410000Y-105025000D01*
X118110000Y-94107000D02*
X118110000Y-103325000D01*
X118110000Y-103325000D02*
X119810000Y-105025000D01*
X131240000Y-105025000D02*
X127840000Y-105025000D01*
X129540000Y-94107000D02*
X129540000Y-103325000D01*
X129540000Y-103325000D02*
X131240000Y-105025000D01*
X142670000Y-105025000D02*
X139270000Y-105025000D01*
X140970000Y-94107000D02*
X140970000Y-103325000D01*
X140970000Y-103325000D02*
X142670000Y-105025000D01*
X154100000Y-105025000D02*
X150700000Y-105025000D01*
X152400000Y-94107000D02*
X152400000Y-103325000D01*
X152400000Y-103325000D02*
X154100000Y-105025000D01*
X165530000Y-105025000D02*
X162130000Y-105025000D01*
X163830000Y-94107000D02*
X163830000Y-103325000D01*
X163830000Y-103325000D02*
X165530000Y-105025000D01*
X176960000Y-105025000D02*
X173560000Y-105025000D01*
X175260000Y-94107000D02*
X175260000Y-103325000D01*
X175260000Y-103325000D02*
X176960000Y-105025000D01*
X106680000Y-86233000D02*
X118110000Y-86233000D01*
X118110000Y-86233000D02*
X129540000Y-86233000D01*
X129540000Y-86233000D02*
X140970000Y-86233000D01*
X140970000Y-86233000D02*
X152400000Y-86233000D01*
X152400000Y-86233000D02*
X163830000Y-86233000D01*
X163830000Y-86233000D02*
X175260000Y-86233000D01*
D16*
G36*
X134493000Y-110998000D02*
X124587000Y-110998000D01*
X124587000Y-90932000D01*
X134493000Y-90932000D01*
X134493000Y-110998000D01*
X134493000Y-110998000D01*
G37*
X134493000Y-110998000D02*
X124587000Y-110998000D01*
X124587000Y-90932000D01*
X134493000Y-90932000D01*
X134493000Y-110998000D01*
G36*
X145923000Y-110998000D02*
X136017000Y-110998000D01*
X136017000Y-90932000D01*
X145923000Y-90932000D01*
X145923000Y-110998000D01*
X145923000Y-110998000D01*
G37*
X145923000Y-110998000D02*
X136017000Y-110998000D01*
X136017000Y-90932000D01*
X145923000Y-90932000D01*
X145923000Y-110998000D01*
G36*
X157353000Y-110998000D02*
X147447000Y-110998000D01*
X147447000Y-90932000D01*
X157353000Y-90932000D01*
X157353000Y-110998000D01*
X157353000Y-110998000D01*
G37*
X157353000Y-110998000D02*
X147447000Y-110998000D01*
X147447000Y-90932000D01*
X157353000Y-90932000D01*
X157353000Y-110998000D01*
G36*
X181483000Y-94819329D02*
X181393404Y-95035100D01*
X181392597Y-95960838D01*
X181483000Y-96179630D01*
X181483000Y-108289329D01*
X181393404Y-108505100D01*
X181392597Y-109430838D01*
X181483000Y-109649630D01*
X181483000Y-110998000D01*
X170307000Y-110998000D01*
X170307000Y-90932000D01*
X181483000Y-90932000D01*
X181483000Y-94819329D01*
X181483000Y-94819329D01*
G37*
X181483000Y-94819329D02*
X181393404Y-95035100D01*
X181392597Y-95960838D01*
X181483000Y-96179630D01*
X181483000Y-108289329D01*
X181393404Y-108505100D01*
X181392597Y-109430838D01*
X181483000Y-109649630D01*
X181483000Y-110998000D01*
X170307000Y-110998000D01*
X170307000Y-90932000D01*
X181483000Y-90932000D01*
X181483000Y-94819329D01*
G36*
X168783000Y-110998000D02*
X158877000Y-110998000D01*
X158877000Y-90932000D01*
X168783000Y-90932000D01*
X168783000Y-110998000D01*
X168783000Y-110998000D01*
G37*
X168783000Y-110998000D02*
X158877000Y-110998000D01*
X158877000Y-90932000D01*
X168783000Y-90932000D01*
X168783000Y-110998000D01*
G36*
X111633000Y-110998000D02*
X100457000Y-110998000D01*
X100457000Y-90932000D01*
X111633000Y-90932000D01*
X111633000Y-110998000D01*
X111633000Y-110998000D01*
G37*
X111633000Y-110998000D02*
X100457000Y-110998000D01*
X100457000Y-90932000D01*
X111633000Y-90932000D01*
X111633000Y-110998000D01*
G36*
X181483000Y-80578379D02*
X180864708Y-81195593D01*
X180158805Y-82895595D01*
X180157199Y-84736329D01*
X180860133Y-86437561D01*
X181483000Y-87061516D01*
X181483000Y-89408000D01*
X100457000Y-89408000D01*
X100457000Y-87695514D01*
X101710292Y-86444407D01*
X102416195Y-84744405D01*
X102417801Y-82903671D01*
X101714867Y-81202439D01*
X100651285Y-80137000D01*
X181483000Y-80137000D01*
X181483000Y-80578379D01*
X181483000Y-80578379D01*
G37*
X181483000Y-80578379D02*
X180864708Y-81195593D01*
X180158805Y-82895595D01*
X180157199Y-84736329D01*
X180860133Y-86437561D01*
X181483000Y-87061516D01*
X181483000Y-89408000D01*
X100457000Y-89408000D01*
X100457000Y-87695514D01*
X101710292Y-86444407D01*
X102416195Y-84744405D01*
X102417801Y-82903671D01*
X101714867Y-81202439D01*
X100651285Y-80137000D01*
X181483000Y-80137000D01*
X181483000Y-80578379D01*
G36*
X123063000Y-110998000D02*
X113157000Y-110998000D01*
X113157000Y-90932000D01*
X123063000Y-90932000D01*
X123063000Y-110998000D01*
X123063000Y-110998000D01*
G37*
X123063000Y-110998000D02*
X113157000Y-110998000D01*
X113157000Y-90932000D01*
X123063000Y-90932000D01*
X123063000Y-110998000D01*
G36*
X181483000Y-117408379D02*
X180864708Y-118025593D01*
X180158805Y-119725595D01*
X180158367Y-120228000D01*
X171081571Y-120228000D01*
X171081571Y-124333000D01*
X100649850Y-124333000D01*
X101710292Y-123274407D01*
X102416195Y-121574405D01*
X102417801Y-119733671D01*
X101714867Y-118032439D01*
X100457000Y-116772375D01*
X100457000Y-112522000D01*
X181483000Y-112522000D01*
X181483000Y-117408379D01*
X181483000Y-117408379D01*
G37*
X181483000Y-117408379D02*
X180864708Y-118025593D01*
X180158805Y-119725595D01*
X180158367Y-120228000D01*
X171081571Y-120228000D01*
X171081571Y-124333000D01*
X100649850Y-124333000D01*
X101710292Y-123274407D01*
X102416195Y-121574405D01*
X102417801Y-119733671D01*
X101714867Y-118032439D01*
X100457000Y-116772375D01*
X100457000Y-112522000D01*
X181483000Y-112522000D01*
X181483000Y-117408379D01*
M02*
