G04 #@! TF.FileFunction,Soldermask,Top*
%FSLAX46Y46*%
G04 Gerber Fmt 4.6, Leading zero omitted, Abs format (unit mm)*
G04 Created by KiCad (PCBNEW 4.0.6) date 06/22/17 12:13:26*
%MOMM*%
%LPD*%
G01*
G04 APERTURE LIST*
%ADD10C,0.100000*%
%ADD11C,7.000000*%
%ADD12C,2.400000*%
%ADD13C,4.572000*%
G04 APERTURE END LIST*
D10*
X91440000Y-77470000D02*
X97790000Y-77470000D01*
X97790000Y-127000000D02*
X91440000Y-127000000D01*
X184150000Y-127000000D02*
X190500000Y-127000000D01*
X184150000Y-77470000D02*
X190500000Y-77470000D01*
X91440000Y-127000000D02*
X91440000Y-77470000D01*
X184150000Y-127000000D02*
X97790000Y-127000000D01*
X190500000Y-77470000D02*
X190500000Y-127000000D01*
X97790000Y-77470000D02*
X184150000Y-77470000D01*
D11*
X184785000Y-83820000D03*
X97790000Y-83820000D03*
X97790000Y-120650000D03*
D12*
X108380000Y-105025000D03*
X104980000Y-105025000D03*
X108380000Y-118495000D03*
X104980000Y-118495000D03*
X119810000Y-105025000D03*
X116410000Y-105025000D03*
X119810000Y-118495000D03*
X116410000Y-118495000D03*
X131240000Y-105025000D03*
X127840000Y-105025000D03*
X131240000Y-118495000D03*
X127840000Y-118495000D03*
X142670000Y-105025000D03*
X139270000Y-105025000D03*
X142670000Y-118495000D03*
X139270000Y-118495000D03*
X154100000Y-105025000D03*
X150700000Y-105025000D03*
X154100000Y-118495000D03*
X150700000Y-118495000D03*
X165530000Y-105025000D03*
X162130000Y-105025000D03*
X165530000Y-118495000D03*
X162130000Y-118495000D03*
X176960000Y-105025000D03*
X173560000Y-105025000D03*
X176960000Y-118495000D03*
X173560000Y-118495000D03*
D13*
X106680000Y-94107000D03*
X106680000Y-86233000D03*
X118110000Y-94107000D03*
X118110000Y-86233000D03*
X129540000Y-94107000D03*
X129540000Y-86233000D03*
X140970000Y-94107000D03*
X140970000Y-86233000D03*
X152400000Y-94107000D03*
X152400000Y-86233000D03*
X163830000Y-94107000D03*
X163830000Y-86233000D03*
X175260000Y-94107000D03*
X175260000Y-86233000D03*
D11*
X184785000Y-120650000D03*
D12*
X183720000Y-108970000D03*
X187120000Y-108970000D03*
X183720000Y-95500000D03*
X187120000Y-95500000D03*
M02*
