M48
;DRILL file {KiCad 4.0.6} date 06/22/17 12:12:38
;FORMAT={-:-/ absolute / metric / decimal}
FMAT,2
METRIC,TZ
T1C1.600
T2C2.286
T3C3.600
%
G90
G05
M71
T1
X104.98Y-105.025
X104.98Y-118.495
X108.38Y-105.025
X108.38Y-118.495
X116.41Y-105.025
X116.41Y-118.495
X119.81Y-105.025
X119.81Y-118.495
X127.84Y-105.025
X127.84Y-118.495
X131.24Y-105.025
X131.24Y-118.495
X139.27Y-105.025
X139.27Y-118.495
X142.67Y-105.025
X142.67Y-118.495
X150.7Y-105.025
X150.7Y-118.495
X154.1Y-105.025
X154.1Y-118.495
X162.13Y-105.025
X162.13Y-118.495
X165.53Y-105.025
X165.53Y-118.495
X173.56Y-105.025
X173.56Y-118.495
X176.96Y-105.025
X176.96Y-118.495
X183.72Y-95.5
X183.72Y-108.97
X187.12Y-95.5
X187.12Y-108.97
T2
X106.68Y-86.233
X106.68Y-94.107
X118.11Y-86.233
X118.11Y-94.107
X129.54Y-86.233
X129.54Y-94.107
X140.97Y-86.233
X140.97Y-94.107
X152.4Y-86.233
X152.4Y-94.107
X163.83Y-86.233
X163.83Y-94.107
X175.26Y-86.233
X175.26Y-94.107
T3
X97.79Y-83.82
X97.79Y-120.65
X184.785Y-83.82
X184.785Y-120.65
T0
M30
